<?xml version="1.0" encoding="UTF-8"?>
<svg version="1.1" xmlns="http://www.w3.org/2000/svg" width="875" height="285">
<path d="M0 0 C0.61875 0.474375 1.2375 0.94875 1.875 1.4375 C1.875 2.0975 1.875 2.7575 1.875 3.4375 C2.47957031 3.67726563 3.08414063 3.91703125 3.70703125 4.1640625 C6.34981545 5.7164006 7.14437489 7.11940437 8.5625 9.8125 C8.97886719 10.58335938 9.39523437 11.35421875 9.82421875 12.1484375 C10.7896181 14.25150078 11.40565848 16.17847158 11.875 18.4375 C16.61185644 17.13677731 19.60696314 15.32499192 23.3125 12.125 C24.27027344 11.31933594 25.22804688 10.51367188 26.21484375 9.68359375 C27.09269531 8.94238281 27.97054687 8.20117188 28.875 7.4375 C39.17676245 -0.93669775 51.58303262 -5.40643444 64.875 -4.5625 C70.81962799 -3.74955942 75.05116962 -2.2900053 79.875 1.4375 C80.720625 2.015 81.56625 2.5925 82.4375 3.1875 C90.86315079 10.96502381 93.7315834 22.2008383 94.24810791 33.34039307 C94.45048953 40.60390455 94.4287156 47.86713765 94.4140625 55.1328125 C94.42397982 57.81610153 94.43563872 60.49932289 94.44979858 63.18258667 C94.47986095 69.4920421 94.49173585 75.80137197 94.49537504 82.11089313 C94.5020659 93.43317386 94.53108158 104.7553692 94.5804714 116.07754314 C94.59958172 120.68342895 94.60100301 125.28913216 94.59854126 129.89505005 C94.60511834 132.29608282 94.61212396 134.69711448 94.61962891 137.09814453 C94.61550491 138.19320816 94.61138092 139.28827179 94.60713196 140.41651917 C94.61520622 141.92158775 94.61520622 141.92158775 94.6234436 143.45706177 C94.62377909 144.32748674 94.62411457 145.19791172 94.62446022 146.09471321 C94.89960851 148.66761313 95.47760334 150.26743136 96.875 152.4375 C99.38592153 153.72579185 99.38592153 153.72579185 102.875 154.4375 C104.14730469 154.78554688 104.14730469 154.78554688 105.4453125 155.140625 C113.95306565 157.09173639 120.8244623 155.67545731 128.875 152.4375 C132.07555364 149.23694636 131.99994021 146.01020925 132.00871277 141.63101196 C132.01297775 140.66655655 132.01724274 139.70210114 132.02163696 138.7084198 C132.02118378 137.65689224 132.02073059 136.60536469 132.02026367 135.52197266 C132.02362228 134.40936569 132.0269809 133.29675873 132.03044128 132.1504364 C132.03995075 128.46746712 132.04189439 124.7845433 132.04296875 121.1015625 C132.04618128 118.5433246 132.04954535 115.98508688 132.05305481 113.42684937 C132.05904603 108.06190491 132.06093751 102.69697742 132.06030273 97.33203125 C132.05970215 91.1381528 132.07025153 84.94436149 132.0860464 78.75050509 C132.10071657 72.78431433 132.10429029 66.8181501 132.10369301 60.85194016 C132.10487358 58.31700662 132.10929968 55.78207246 132.11702538 53.24715042 C132.12681842 49.70196544 132.12394978 46.15700497 132.11791992 42.61181641 C132.12353943 41.56433731 132.12915894 40.51685822 132.13494873 39.43763733 C132.12775608 32.22664091 132.12775608 32.22664091 129.875 25.4375 C126.67563587 24.16495237 126.67563587 24.16495237 122.9375 23.75 C116.34093089 22.74721235 116.34093089 22.74721235 113.87109375 21.10546875 C112.875 19.4375 112.875 19.4375 112.96875 17.3515625 C113.875 15.4375 113.875 15.4375 117.375 13.8125 C120.25433648 12.83576395 123.00137978 12.26173149 126 11.8125 C134.59933381 10.07162265 142.86956753 3.52372304 148.875 -2.5625 C151.4375 -3.4375 151.4375 -3.4375 153.875 -3.5625 C154.865 -2.9025 155.855 -2.2425 156.875 -1.5625 C157.25696754 1.015028 157.25696754 1.015028 157.26699829 4.34567261 C157.27809128 5.6047644 157.28918427 6.8638562 157.3006134 8.16110229 C157.29784423 9.56427057 157.29479838 10.96743833 157.29150391 12.37060547 C157.29887988 13.84223119 157.30758362 15.31385077 157.31752014 16.78546143 C157.3409058 20.78964777 157.34599629 24.79367927 157.34817934 28.79792547 C157.35382914 32.98416208 157.37709626 37.17029697 157.39877319 41.35647583 C157.43735012 49.29189016 157.46153339 57.22727552 157.47989786 65.1627599 C157.51325167 79.37108466 157.57102964 93.57932202 157.63388956 107.78754342 C157.65539091 112.77573008 157.67065567 117.76388683 157.68072915 122.75210929 C157.68774707 125.85523137 157.69862767 128.95833209 157.71037102 132.06143951 C157.71492926 133.5013828 157.71777664 134.94133266 157.71879387 136.38128281 C157.72036621 138.34598395 157.72849756 140.3106766 157.73696899 142.27536011 C157.74080314 143.92516026 157.74080314 143.92516026 157.74471474 145.60828972 C157.85879148 148.08552382 158.01145723 150.11781256 158.875 152.4375 C169.11615823 157.89580002 180.17472911 156.42138364 190.875 153.4375 C191.79543156 150.30565823 191.9985531 147.50796234 191.99525452 144.2489624 C191.99662918 143.20010864 191.99800385 142.15125488 191.99942017 141.07061768 C191.99582489 139.9255072 191.99222961 138.78039673 191.98852539 137.60058594 C191.98874443 135.78554565 191.98874443 135.78554565 191.9889679 133.93383789 C191.98839082 130.62010638 191.98337727 127.30643726 191.97639394 123.99271679 C191.97014051 120.52804435 191.96955502 117.06337106 191.96836853 113.59869385 C191.96526109 107.03978191 191.9570556 100.48088665 191.94701904 93.92198205 C191.93583969 86.45407722 191.93034286 78.98617159 191.92532361 71.51826048 C191.91487251 56.15799733 191.89728441 40.79775082 191.875 25.4375 C190.81539062 25.24414062 189.75578125 25.05078125 188.6640625 24.8515625 C187.27596447 24.58894936 185.88794776 24.32590614 184.5 24.0625 C183.80132813 23.93617187 183.10265625 23.80984375 182.3828125 23.6796875 C177.1015625 22.6640625 177.1015625 22.6640625 174.875 20.4375 C174.75 17.8125 174.75 17.8125 174.875 15.4375 C178.84147458 13.87924213 182.35132966 12.52625768 186.5625 11.8125 C193.94474765 10.11341126 200.85174917 3.91500641 206.6015625 -0.796875 C209.11116272 -2.7459116 210.71295976 -3.39157891 213.875 -3.5625 C216.2718665 -1.1656335 216.15781133 -0.49221686 216.2890625 2.7890625 C216.32773437 3.63984375 216.36640625 4.490625 216.40625 5.3671875 C216.45265625 6.70136719 216.45265625 6.70136719 216.5 8.0625 C216.53867187 8.9596875 216.57734375 9.856875 216.6171875 10.78125 C216.71159357 12.9997927 216.79716748 15.21832403 216.875 17.4375 C220.6321804 16.63355322 222.61099613 15.24523274 225.5625 12.75 C230.15595362 8.97391092 234.85781361 5.62075273 239.875 2.4375 C240.926875 1.715625 241.97875 0.99375 243.0625 0.25 C253.64881284 -5.66151581 266.62321798 -5.6719246 277.9765625 -2.59765625 C286.87417728 0.58006331 292.08015365 7.54651889 296.625 15.5 C301.47787564 28.43080635 300.16944716 43.88934602 300.17996025 57.41448212 C300.18365883 61.2391713 300.20047374 65.06360924 300.22071838 68.88824463 C300.26883639 78.3696674 300.30088338 87.85112033 300.32202148 97.3326416 C300.33997701 105.38316274 300.36925468 113.4334164 300.41606331 121.48383331 C300.42772895 124.02122281 300.43364379 126.5586454 300.43374443 129.09606171 C300.43393551 132.62641542 300.45212391 136.15625 300.47436523 139.68652344 C300.46978806 140.7368576 300.46521088 141.78719177 300.460495 142.86935425 C300.47014282 143.82784271 300.47979065 144.78633118 300.48973083 145.77386475 C300.49174216 146.60704098 300.49375349 147.44021721 300.49582577 148.2986412 C300.96971633 150.97177908 301.71611293 151.82818287 303.875 153.4375 C306.42346337 154.07674666 308.85440847 154.58699861 311.4375 155 C318.61993243 156.18243243 318.61993243 156.18243243 320.875 158.4375 C321 161.5625 321 161.5625 320.875 164.4375 C317.60225888 166.3807023 315.14240267 166.69420652 311.35961914 166.7121582 C310.25489761 166.72169022 309.15017609 166.73122223 308.01197815 166.74104309 C306.82337692 166.74013168 305.6347757 166.73922028 304.41015625 166.73828125 C303.18469589 166.74256638 301.95923553 166.7468515 300.69664001 166.75126648 C298.10513934 166.75700931 295.51362255 166.7575104 292.92211914 166.75317383 C288.95626334 166.75001495 284.99115413 166.77347127 281.02539062 166.79882812 C278.50781344 166.8011012 275.99023425 166.80180458 273.47265625 166.80078125 C272.28607925 166.809991 271.09950226 166.81920074 269.87696838 166.82868958 C268.7690947 166.82246078 267.66122101 166.81623199 266.51977539 166.80981445 C265.06227623 166.81075859 265.06227623 166.81075859 263.57533264 166.8117218 C260.35780235 166.36582489 258.45986713 165.38325591 255.875 163.4375 C255.4375 160.875 255.4375 160.875 255.875 158.4375 C259.09922793 155.21327207 263.4238748 155.22731764 267.80859375 154.4140625 C271.33818843 153.28998776 272.024432 152.55430319 273.875 149.4375 C274.32429508 147.09777192 274.32429508 147.09777192 274.26268005 144.55076599 C274.27258469 143.56829391 274.28248932 142.58582184 274.29269409 141.57357788 C274.28594162 139.96599106 274.28594162 139.96599106 274.27905273 138.32592773 C274.28591599 137.19209152 274.29277924 136.05825531 274.29985046 134.89006042 C274.31818203 131.13361148 274.31426975 127.37757794 274.30859375 123.62109375 C274.3131544 121.00757206 274.31845962 118.39405157 274.32447815 115.78053284 C274.33451287 110.29529858 274.33120629 104.81018215 274.32104492 99.32495117 C274.30959907 93.00721565 274.32357802 86.6899064 274.3504414 80.37222713 C274.37538363 74.27572545 274.37775568 68.1794184 274.37132454 62.08287239 C274.37117161 59.49903723 274.3771925 56.91519377 274.38961601 54.33138847 C274.40458526 50.70555421 274.39380185 47.08064056 274.37670898 43.45483398 C274.38637695 42.39727905 274.39604492 41.33972412 274.40600586 40.25012207 C274.33245659 32.75461195 273.2915764 24.81676209 268.53394222 18.71857357 C264.19025572 14.75235438 259.25887805 13.66239416 253.5625 13.125 C244.34243931 13.90636108 236.71604296 17.13684195 229.875 23.4375 C222.02956407 33.09803678 218.24588265 43.92171847 218.37329102 56.27734375 C218.36788803 57.29825607 218.36248505 58.3191684 218.35691833 59.37101746 C218.34452856 62.70598373 218.36084785 66.04007069 218.37890625 69.375 C218.37875113 71.70621791 218.37726003 74.03743607 218.37449646 76.36865234 C218.37311718 81.23367835 218.38559953 86.09840783 218.40844727 90.96337891 C218.43695699 97.20578276 218.43405397 103.44769909 218.42135715 109.69013977 C218.41441538 114.49416289 218.42216998 119.29807265 218.43461418 124.1020813 C218.43913439 126.40503505 218.43946053 128.70800094 218.43554878 131.01095581 C218.43264815 134.2184975 218.44908441 137.42535693 218.47094727 140.6328125 C218.46644562 141.58657272 218.46194397 142.54033295 218.45730591 143.522995 C218.47216286 144.83056511 218.47216286 144.83056511 218.48731995 146.16455078 C218.48974984 146.9218045 218.49217974 147.67905823 218.49468327 148.45925903 C218.9785064 150.97589492 219.89585329 151.85993673 221.875 153.4375 C223.754143 154.07981687 223.754143 154.07981687 225.81640625 154.31640625 C226.56470703 154.43306641 227.31300781 154.54972656 228.08398438 154.66992188 C228.86064453 154.77884766 229.63730469 154.88777344 230.4375 155 C238.61993243 156.18243243 238.61993243 156.18243243 240.875 158.4375 C241 161.5625 241 161.5625 240.875 164.4375 C236.21811496 166.24901086 232.33762251 166.68861012 227.35362244 166.69146729 C226.61698429 166.69458727 225.88034615 166.69770725 225.12138563 166.70092177 C222.66409323 166.70887056 220.20704991 166.70259042 217.74975586 166.69628906 C215.98360551 166.69900029 214.21745629 166.70256196 212.4513092 166.70690918 C207.66219707 166.71601912 202.8731712 166.71249484 198.08405757 166.70615101 C193.070893 166.70108461 188.05773578 166.70578417 183.04457092 166.70892334 C174.62727534 166.71256077 166.21001486 166.70776936 157.79272461 166.69824219 C148.06105644 166.68735454 138.32947206 166.69088637 128.59780592 166.701895 C120.24098078 166.71096998 111.88418087 166.71225222 103.52735239 166.70701766 C98.53672923 166.70389958 93.54614546 166.70348426 88.55552483 166.71009064 C83.86465594 166.71586664 79.17389515 166.71186249 74.48303795 166.70030212 C72.76131113 166.69765706 71.03957522 166.69841801 69.31785202 166.70282745 C66.96824306 166.70829032 64.61898078 166.70143992 62.26939392 166.69146729 C60.9544139 166.69071323 59.63943388 166.68995918 58.28460598 166.68918228 C55.00448708 166.44705817 52.77085211 165.96700921 49.875 164.4375 C48.55215102 161.50833439 48.83440868 160.55927395 49.875 157.4375 C52.38159448 156.55264551 54.73978541 155.86051491 57.3125 155.25 C58.35374023 154.98413086 58.35374023 154.98413086 59.41601562 154.71289062 C64.50280526 153.4375 64.50280526 153.4375 66.875 153.4375 C67.75902521 150.39288852 68.0045026 147.67192143 68.01544189 144.506073 C68.02115204 143.51374161 68.02686218 142.52141022 68.03274536 141.49900818 C68.03386322 140.41636185 68.03498108 139.33371552 68.03613281 138.21826172 C68.04109772 137.07306564 68.04606262 135.92786957 68.05117798 134.74797058 C68.06579772 130.95437012 68.07260215 127.16081152 68.078125 123.3671875 C68.08387762 120.72885131 68.08963534 118.09051513 68.09539795 115.45217896 C68.10496641 110.62333493 68.11086461 105.79449991 68.1138947 100.96564758 C68.11836756 93.87786005 68.13588111 86.79026612 68.1648953 79.70253742 C68.18920535 73.54840612 68.19684341 67.39435409 68.19857025 61.24017715 C68.20159069 58.63039218 68.20959858 56.0206079 68.22275543 53.41085434 C68.23988352 49.75145735 68.23791858 46.09252671 68.23144531 42.43310547 C68.24526749 40.82735405 68.24526749 40.82735405 68.2593689 39.18916321 C68.22154144 32.33401349 67.96524726 24.44244481 63.60002518 18.78513908 C59.4181931 14.9644583 54.88347957 13.51510873 49.30078125 13.37109375 C40.14798121 13.79235233 33.69570567 17.50316178 26.875 23.4375 C24.94610614 25.79526665 24.94610614 25.79526665 23.3125 28.4375 C22.75433594 29.283125 22.19617188 30.12875 21.62109375 31 C15.05168544 43.93306334 15.31561348 55.78564751 15.4140625 70.03515625 C15.41645009 72.3201029 15.41735158 74.60505155 15.4168396 76.88999939 C15.4199533 81.65490176 15.43641812 86.41950019 15.46337891 91.18432617 C15.49753079 97.29771774 15.50500176 103.41077898 15.50348854 109.5242548 C15.50403135 114.23132998 15.5149814 118.9383327 15.52949142 123.64538383 C15.53585988 125.90088796 15.53979843 128.15640029 15.54127884 130.41191292 C15.54560144 133.55217752 15.56307504 136.69208681 15.58447266 139.83227539 C15.58356628 140.76576309 15.58265991 141.69925079 15.58172607 142.661026 C15.59025604 143.51446594 15.59878601 144.36790588 15.60757446 145.24720764 C15.61092615 145.98841386 15.61427784 146.72962008 15.61773109 147.49328709 C15.77252118 149.76126815 15.77252118 149.76126815 17.875 152.4375 C20.72669096 153.25185484 23.47632156 153.92169223 26.375 154.5 C34.62383901 156.18633901 34.62383901 156.18633901 36.875 158.4375 C37 161.5625 37 161.5625 36.875 164.4375 C33.59927766 166.38443516 31.14650606 166.69008263 27.35961914 166.69628906 C26.25489761 166.70259338 25.15017609 166.70889771 24.01197815 166.71539307 C22.82337692 166.7113446 21.6347757 166.70729614 20.41015625 166.703125 C19.18469589 166.70503845 17.95923553 166.7069519 16.69664001 166.70892334 C14.10513097 166.7102843 11.51361509 166.70659408 8.92211914 166.69824219 C4.95638691 166.68755092 0.99110865 166.69813613 -2.97460938 166.7109375 C-5.4921885 166.70961571 -8.00976734 166.70705291 -10.52734375 166.703125 C-12.30720924 166.70919769 -12.30720924 166.70919769 -14.12303162 166.71539307 C-15.78484215 166.70593658 -15.78484215 166.70593658 -17.48022461 166.69628906 C-18.45189072 166.69469788 -19.42355682 166.69310669 -20.42466736 166.69146729 C-23.3627843 166.4151363 -25.5032613 165.78552792 -28.125 164.4375 C-29.125 162 -29.125 162 -29.125 159.4375 C-26.18746297 155.34738767 -21.57949885 155.23695565 -16.9375 154.28125 C-14.03201739 153.40960522 -12.87169778 152.87368375 -11.125 150.4375 C-10.21852998 147.52667296 -9.99770879 144.89390431 -9.99128723 141.85447693 C-9.98702225 140.93931808 -9.98275726 140.02415924 -9.97836304 139.08126831 C-9.97881622 138.08434967 -9.97926941 137.08743103 -9.97973633 136.06030273 C-9.97637772 135.00449509 -9.9730191 133.94868744 -9.96955872 132.86088562 C-9.96004724 129.3642764 -9.95810517 125.86771511 -9.95703125 122.37109375 C-9.95381762 119.93693522 -9.95045347 117.50277689 -9.94694519 115.06861877 C-9.94095259 109.96004794 -9.93910531 104.85149402 -9.93969727 99.74291992 C-9.93979862 93.21535274 -9.9261742 86.68789497 -9.90892506 80.16035366 C-9.89777066 75.12870288 -9.89577915 70.09707821 -9.89630699 65.06541634 C-9.89513099 62.6602141 -9.89073066 60.25501111 -9.88297462 57.84982109 C-9.87311013 54.47329082 -9.87607878 51.0969935 -9.88208008 47.72045898 C-9.87646057 46.73770996 -9.87084106 45.75496094 -9.86505127 44.74243164 C-9.90651588 35.50050346 -10.40391413 26.01407318 -16.125 18.4375 C-21.41554053 14.4166892 -26.49113503 13.18996772 -33.125 13.4375 C-40.37714643 14.6606232 -46.98426689 17.41970046 -51.59375 23.31640625 C-52.77705663 25.01912945 -53.95171486 26.72785593 -55.125 28.4375 C-55.785 28.4375 -56.445 28.4375 -57.125 28.4375 C-63.13978912 42.99267932 -63.70987135 56.28059057 -63.62109375 71.85546875 C-63.62124901 74.0888931 -63.62274253 76.32231771 -63.62550354 78.55574036 C-63.62687907 83.204357 -63.61446104 87.85266188 -63.59155273 92.5012207 C-63.56298793 98.4609251 -63.56596601 104.42011953 -63.57864285 110.37986279 C-63.58558732 114.97718174 -63.57782784 119.57438233 -63.56538582 124.17168617 C-63.56087214 126.370543 -63.56053379 128.56941252 -63.56445122 130.76827049 C-63.56735589 133.82909807 -63.5508982 136.88921356 -63.52905273 139.94995117 C-63.53580521 141.30966789 -63.53580521 141.30966789 -63.54269409 142.69685364 C-63.50043219 147.54994219 -63.50043219 147.54994219 -61.71658325 151.98686218 C-59.82629846 153.7097495 -58.70336124 154.07500577 -56.18359375 154.4140625 C-55.06114258 154.58421875 -55.06114258 154.58421875 -53.91601562 154.7578125 C-53.13935547 154.85835937 -52.36269531 154.95890625 -51.5625 155.0625 C-43.36241611 156.20008389 -43.36241611 156.20008389 -41.125 158.4375 C-41.5 162.0625 -41.5 162.0625 -42.125 165.4375 C-45.35544143 166.39557554 -48.27700166 166.56955849 -51.64038086 166.58276367 C-52.74510239 166.58914352 -53.84982391 166.59552338 -54.98802185 166.60209656 C-56.17662308 166.60320938 -57.3652243 166.6043222 -58.58984375 166.60546875 C-59.81530411 166.60879715 -61.04076447 166.61212555 -62.30335999 166.61555481 C-64.89486313 166.62061716 -67.48637278 166.62296335 -70.07788086 166.62280273 C-74.0435661 166.62498956 -78.00897334 166.64315389 -81.97460938 166.66210938 C-84.49218655 166.66504335 -87.00976504 166.66702812 -89.52734375 166.66796875 C-91.30720924 166.67874702 -91.30720924 166.67874702 -93.12303162 166.68974304 C-94.2309053 166.68666641 -95.33877899 166.68358978 -96.48022461 166.68041992 C-97.45189072 166.68184494 -98.42355682 166.68326996 -99.42466736 166.68473816 C-102.36634925 166.41540245 -104.50127206 165.78772839 -107.125 164.4375 C-108.125 162 -108.125 162 -108.125 159.4375 C-105.27457421 155.57934792 -101.26621167 155.34151722 -96.81640625 154.37890625 C-93.60572262 153.25586597 -92.28171789 152.05084372 -90.125 149.4375 C-89.53501059 147.03086711 -89.53501059 147.03086711 -89.63052368 144.38304138 C-89.61794022 142.85412766 -89.61794022 142.85412766 -89.60510254 141.29432678 C-89.61634155 140.18198166 -89.62758057 139.06963654 -89.63916016 137.92358398 C-89.63536346 136.74763672 -89.63156677 135.57168945 -89.62765503 134.36010742 C-89.62151636 131.13892011 -89.63325175 127.91840972 -89.65356112 124.69729877 C-89.67114165 121.32612421 -89.66760687 117.95496655 -89.6668396 114.58375549 C-89.66871189 108.92366251 -89.68606713 103.26378416 -89.71337891 97.60375977 C-89.74484422 91.0587561 -89.75537454 84.51398733 -89.7539078 77.9689135 C-89.75268736 71.67270932 -89.76289611 65.37658166 -89.77949142 59.08040047 C-89.78655439 56.4006395 -89.79021753 53.72090561 -89.79127884 51.04113579 C-89.79560099 47.30131024 -89.81307858 43.56178321 -89.83447266 39.82202148 C-89.83356628 38.70765213 -89.83265991 37.59328278 -89.83172607 36.44514465 C-89.84025604 35.42868866 -89.84878601 34.41223267 -89.85757446 33.36497498 C-89.86092615 32.48064002 -89.86427784 31.59630507 -89.86773109 30.68517208 C-89.9841817 28.1542041 -89.9841817 28.1542041 -92.125 25.4375 C-94.68735386 24.57666427 -97.13166585 23.87076741 -99.75 23.25 C-100.45640625 23.07275391 -101.1628125 22.89550781 -101.890625 22.71289062 C-103.63284364 22.27733596 -105.37861516 21.85603749 -107.125 21.4375 C-107.455 19.7875 -107.785 18.1375 -108.125 16.4375 C-104.89850747 13.60561447 -102.38765309 12.96666476 -98.1875 12.3125 C-88.9710337 10.36945694 -82.59066478 5.11700157 -75.41796875 -0.79296875 C-72.8975793 -2.73800524 -71.29309339 -3.39125171 -68.125 -3.5625 C-65.7281335 -1.1656335 -65.84218867 -0.49221686 -65.7109375 2.7890625 C-65.65292969 4.06523438 -65.65292969 4.06523438 -65.59375 5.3671875 C-65.5628125 6.25664063 -65.531875 7.14609375 -65.5 8.0625 C-65.44199219 9.40828125 -65.44199219 9.40828125 -65.3828125 10.78125 C-65.28840643 12.9997927 -65.20283252 15.21832403 -65.125 17.4375 C-60.95239519 16.58871278 -58.93047373 14.72871273 -55.75 11.875 C-39.78118183 -1.89165062 -20.15058435 -10.07529218 0 0 Z " fill="#6B6FB8" transform="translate(401.125,95.5625)"/>
<path d="M0 0 C1.18154663 -0.00855011 1.18154663 -0.00855011 2.38696289 -0.01727295 C4.0512559 -0.02671136 5.71556751 -0.03325233 7.37988281 -0.03710938 C9.92806341 -0.04683897 12.47544533 -0.07788186 15.0234375 -0.109375 C16.64062021 -0.115903 18.25780869 -0.12115427 19.875 -0.125 C20.63756104 -0.1373468 21.40012207 -0.1496936 22.18579102 -0.16241455 C27.45026703 -0.14018835 27.45026703 -0.14018835 29.63869476 1.40181828 C31.38881663 3.82905386 31.31376354 5.39968917 31.31604004 8.38047791 C31.32424271 9.45268585 31.33244537 10.5248938 31.34089661 11.6295929 C31.33474838 12.8061998 31.32860016 13.9828067 31.32226562 15.19506836 C31.3276384 16.43444153 31.33301117 17.6738147 31.33854675 18.95074463 C31.34834747 21.64865048 31.35275274 24.34594574 31.34819031 27.04380608 C31.34137626 31.31947613 31.35725999 35.59487788 31.37658691 39.87049866 C31.41447238 48.96052622 31.42722495 58.05053064 31.4375 67.140625 C31.44858643 76.92409373 31.46416335 86.70743834 31.50821257 96.49082285 C31.52645133 100.7300739 31.53050275 104.96901788 31.52327728 109.20829856 C31.52138006 112.4877826 31.53869636 115.76718226 31.55273438 119.04663086 C31.54658615 120.20501968 31.54043793 121.36340851 31.53410339 122.55690002 C31.60480098 132.01683537 32.34402984 142.8561154 38.9375 150.203125 C44.81899699 154.16971599 51.55102092 154.81841723 58.4375 153.640625 C66.97300492 151.39522214 74.08314078 145.4605128 78.9375 138.203125 C82.43913784 131.22706413 85.0606528 124.46033808 85.06448364 116.59114075 C85.06730347 115.69525742 85.07012329 114.79937408 85.07302856 113.87634277 C85.07100433 112.90628296 85.0689801 111.93622314 85.06689453 110.93676758 C85.06864685 109.90537155 85.07039917 108.87397552 85.07220459 107.81132507 C85.07660126 104.40675162 85.07369342 101.00223022 85.0703125 97.59765625 C85.07098601 95.23304738 85.07195643 92.86843859 85.07321167 90.50382996 C85.07468555 85.55178161 85.07254342 80.59975132 85.06787109 75.64770508 C85.06216465 69.2885816 85.06546057 62.92950025 85.07144356 56.5703783 C85.07504953 51.69007548 85.07391058 46.80978272 85.07131577 41.9294796 C85.07064708 39.58382856 85.07147288 37.23817661 85.07379532 34.89252663 C85.07632343 31.62209256 85.07247938 28.35172771 85.06689453 25.08129883 C85.06993088 23.61710007 85.06993088 23.61710007 85.07302856 22.12332153 C85.06879883 20.79218575 85.06879883 20.79218575 85.06448364 19.43415833 C85.06410662 18.66081555 85.06372959 17.88747278 85.06334114 17.09069538 C85.05371272 15.11327948 85.05371272 15.11327948 83.9375 13.203125 C80.76493469 12.4877059 77.60737579 11.93939149 74.39648438 11.43554688 C72.55902023 11.11359043 70.7449431 10.66473079 68.9375 10.203125 C66.9375 7.203125 66.9375 7.203125 67.125 4.640625 C67.9375 2.203125 67.9375 2.203125 70.9375 0.203125 C73.66004128 0.0072853 76.27773978 -0.07695257 79 -0.0625 C80.18154663 -0.06537018 80.18154663 -0.06537018 81.38696289 -0.06829834 C83.05127278 -0.06965847 84.71559334 -0.06597399 86.37988281 -0.05761719 C88.92797669 -0.046915 91.47536556 -0.05751801 94.0234375 -0.0703125 C95.64062656 -0.06899087 97.25781517 -0.06642842 98.875 -0.0625 C100.01884155 -0.06857269 100.01884155 -0.06857269 101.18579102 -0.07476807 C104.97248674 -0.04118437 106.70898266 0.0507801 109.9375 2.203125 C110.96494676 5.28546527 111.0695901 7.4074017 111.08226013 10.6375885 C111.08915863 11.76631882 111.09605713 12.89504913 111.10316467 14.0579834 C111.10577805 15.29705444 111.10839142 16.53612549 111.11108398 17.81274414 C111.12134826 19.81464047 111.1316147 21.81653679 111.14196312 23.81843269 C111.15219343 25.97076467 111.16004486 28.12309434 111.16729546 30.27543831 C111.18274107 34.75832617 111.20668828 39.24114332 111.23219299 43.72398376 C111.30341982 56.47129862 111.36325914 69.21865333 111.41430664 81.96606445 C111.4425745 89.00627244 111.47793239 96.04640942 111.52096039 103.08654302 C111.54778424 107.54592264 111.56565723 112.00522196 111.57699764 116.46466649 C111.58823569 119.88413351 111.61236514 123.30348708 111.63452148 126.72290039 C111.63511063 127.96399567 111.63569977 129.20509094 111.63630676 130.48379517 C111.64602509 131.60970566 111.65574341 132.73561615 111.66575623 133.89564514 C111.66998816 134.87806718 111.6742201 135.86048922 111.67858028 136.87268162 C111.71321897 139.3953114 111.71321897 139.3953114 113.9375 141.203125 C116.255203 141.77118946 118.592505 142.26103578 120.9375 142.703125 C127.71527778 143.98090278 127.71527778 143.98090278 129.9375 146.203125 C129.5625 148.828125 129.5625 148.828125 128.9375 151.203125 C127.99390625 151.41066406 127.0503125 151.61820313 126.078125 151.83203125 C114.71435666 154.49264917 104.55121326 158.17061058 97.31640625 167.82421875 C94.92390542 170.21671958 92.16499763 170.13857505 88.9375 170.203125 C87.79095518 167.91003537 87.74020883 166.40402844 87.62109375 163.8515625 C87.57919922 163.00078125 87.53730469 162.15 87.49414062 161.2734375 C87.45482422 160.38398438 87.41550781 159.49453125 87.375 158.578125 C87.33181641 157.6809375 87.28863281 156.78375 87.24414062 155.859375 C87.13793139 153.64078217 87.03588806 151.4220762 86.9375 149.203125 C83.50739366 150.82569101 81.18891825 152.69593487 78.4375 155.328125 C65.57446863 167.05618302 54.48009127 172.11318734 37.2265625 171.546875 C27.93145924 170.98084 21.1870126 166.97566548 14.9375 160.203125 C6.76571755 150.59674074 6.63970438 139.75641232 6.65039062 127.61914062 C6.64355759 126.41291046 6.63672455 125.2066803 6.62968445 123.96389771 C6.61267173 120.69170163 6.60403746 117.41961025 6.59864616 114.14737892 C6.59039002 110.71079811 6.56946374 107.27429748 6.54943848 103.83776855 C6.49658464 94.38418494 6.46288781 84.93055244 6.42967987 75.47688293 C6.39897915 66.78390254 6.36420951 58.09099226 6.31336927 49.39810324 C6.29385899 45.98152143 6.27861115 42.56502687 6.27302551 39.14839172 C6.26561546 35.34948294 6.24638209 31.55080264 6.22460938 27.75195312 C6.22559128 26.62052887 6.22657318 25.48910461 6.22758484 24.32339478 C6.21517509 22.77602127 6.21517509 22.77602127 6.20251465 21.1973877 C6.19958153 20.30002144 6.19664841 19.40265518 6.1936264 18.47809601 C6.08191978 15.92344723 6.08191978 15.92344723 3.9375 13.203125 C1.19109626 12.50978535 1.19109626 12.50978535 -1.9375 12.203125 C-6.24061159 11.69563272 -8.79140794 11.11076239 -12.0625 8.203125 C-11.7325 5.893125 -11.4025 3.583125 -11.0625 1.203125 C-7.34645157 -0.03555781 -3.87219504 0.02158038 0 0 Z " fill="#6B6FB8" transform="translate(166.0625,92.796875)"/>
<path d="M0 0 C2.4002674 2.01361345 4.16871234 3.92433378 5.8671875 6.56640625 C6.21394531 7.10523437 6.56070313 7.6440625 6.91796875 8.19921875 C13.8332007 20.2191492 12.17317335 35.99463262 12.20271301 49.34481812 C12.21107577 53.00187318 12.23164307 56.65868726 12.25524902 60.31567383 C12.31134986 69.38554763 12.34693762 78.45547952 12.38287354 87.52545166 C12.41411113 95.21904654 12.45326291 102.91252067 12.50312805 110.60601807 C12.52317775 114.20725113 12.5315081 117.80839078 12.53942871 121.40966797 C12.55239717 123.61165715 12.5659169 125.81364317 12.58007812 128.015625 C12.57909622 129.01515701 12.57811432 130.01468903 12.57710266 131.04450989 C12.63414019 137.52405898 12.63414019 137.52405898 14.8671875 143.56640625 C17.15412973 144.07019654 17.15412973 144.07019654 19.8671875 143.56640625 C26.28397175 137.74653216 26.72426337 130.98161504 27.3046875 122.69140625 C27.34464844 121.78648437 27.38460937 120.8815625 27.42578125 119.94921875 C27.94210839 117.16196606 28.60746704 116.23403649 30.8671875 114.56640625 C33.4296875 114.25390625 33.4296875 114.25390625 35.8671875 114.56640625 C38.42238928 117.12160803 38.17745855 118.88855262 38.24731445 122.38134766 C38.22002092 135.01175352 36.87315872 147.24291704 28.8671875 157.56640625 C28.2071875 157.56640625 27.5471875 157.56640625 26.8671875 157.56640625 C26.6609375 158.14390625 26.4546875 158.72140625 26.2421875 159.31640625 C23.84754376 163.23491419 20.13967428 165.14224399 15.8671875 166.56640625 C9.7277753 167.06758276 3.93494521 167.45561565 -1.1328125 163.56640625 C-6.03557266 157.84249414 -10.1328125 150.29202654 -10.1328125 142.56640625 C-14.24997803 144.75638791 -16.86314331 147.28359066 -19.8828125 150.81640625 C-27.84425466 159.73322147 -35.11882365 166.12777316 -47.3515625 166.87890625 C-58.75504583 167.31207109 -67.28671824 166.40169423 -76.0078125 158.44140625 C-83.86091978 149.8377365 -84.96771634 141.31427069 -84.5 130.03515625 C-83.48631251 115.17613473 -75.84074669 104.44522527 -65.1328125 94.56640625 C-63.6478125 94.07140625 -63.6478125 94.07140625 -62.1328125 93.56640625 C-61.45083493 92.24083889 -60.78531999 90.90672569 -60.1328125 89.56640625 C-58.61499023 88.22949219 -58.61499023 88.22949219 -56.81640625 87.05078125 C-56.14311279 86.60806885 -55.46981934 86.16535645 -54.77612305 85.70922852 C-54.04820557 85.24959717 -53.32028809 84.78996582 -52.5703125 84.31640625 C-51.81596924 83.83550537 -51.06162598 83.35460449 -50.28442383 82.85913086 C-45.10790656 79.63085182 -39.83376707 76.73851105 -34.3203125 74.12890625 C-33.67698975 73.8237207 -33.03366699 73.51853516 -32.37084961 73.20410156 C-26.45741698 70.51718979 -20.31152281 68.54852464 -14.1328125 66.56640625 C-14.08309955 60.60735264 -14.0469454 54.64842176 -14.02294922 48.68920898 C-14.01293767 46.66509903 -13.9993244 44.64100336 -13.98193359 42.61694336 C-13.95747109 39.69511369 -13.94628066 36.77347647 -13.9375 33.8515625 C-13.92201614 32.51038109 -13.92201614 32.51038109 -13.90621948 31.1421051 C-13.90493628 23.83500335 -14.10579433 16.2789269 -19.1328125 10.56640625 C-19.1328125 9.90640625 -19.1328125 9.24640625 -19.1328125 8.56640625 C-25.21443794 6.26890331 -30.79616456 5.89790758 -37.1328125 7.56640625 C-44.32381279 11.44784295 -47.67797218 18.04120482 -50.1328125 25.56640625 C-50.84048344 28.40750716 -51.45633574 31.26629449 -52.0703125 34.12890625 C-53.87714429 42.51618618 -56.4572017 49.21751641 -62.9453125 55.12890625 C-68.41032352 57.59351906 -72.9536799 58.38358097 -78.6328125 56.25390625 C-81.1328125 54.56640625 -81.1328125 54.56640625 -82.1328125 52.56640625 C-83.3437064 37.79747076 -79.34250165 28.86920657 -70.1328125 17.56640625 C-54.33705848 -0.86197344 -22.2248326 -16.41157567 0 0 Z M-28.1328125 83.56640625 C-33.63052147 86.63223355 -38.89742522 90.07614806 -44.1328125 93.56640625 C-44.1328125 94.22640625 -44.1328125 94.88640625 -44.1328125 95.56640625 C-44.97972656 95.86224609 -44.97972656 95.86224609 -45.84375 96.1640625 C-51.63470284 99.71176228 -55.93508815 108.16905886 -58.16015625 114.48046875 C-58.71070103 117.20506265 -58.9926593 119.79059421 -59.1328125 122.56640625 C-59.19984375 123.64019531 -59.266875 124.71398437 -59.3359375 125.8203125 C-59.58926205 133.62813692 -59.3594268 140.97103603 -53.9453125 147.00390625 C-49.02497298 149.73742821 -44.61768054 151.14275466 -39.0078125 149.94140625 C-29.86383136 147.13200304 -23.02678614 139.5258359 -18.1328125 131.56640625 C-14.38152543 123.20910847 -12.97093819 115.46448514 -13.03515625 106.32421875 C-13.0365712 105.55584686 -13.03798615 104.78747498 -13.03944397 103.99581909 C-13.04500567 101.56097386 -13.0575509 99.12622331 -13.0703125 96.69140625 C-13.07533246 95.03255342 -13.07989449 93.37369913 -13.08398438 91.71484375 C-13.09496252 87.66532855 -13.11220044 83.61588341 -13.1328125 79.56640625 C-18.45212521 77.79330201 -23.29872222 81.20184552 -28.1328125 83.56640625 Z " fill="#6B6FB8" transform="translate(806.1328125,97.43359375)"/>
<path d="M0 0 C1.76966125 0.00213753 1.76966125 0.00213753 3.57507324 0.00431824 C4.22564194 0.00241989 4.87621063 0.00052155 5.54649353 -0.00143433 C7.7013242 -0.00514515 9.8558193 0.00556629 12.01062012 0.01676941 C13.50512655 0.01796118 14.99963374 0.01841438 16.49414062 0.01815796 C19.62809938 0.01972336 22.76194399 0.02801717 25.89587402 0.04142761 C29.9178093 0.05841755 33.93961904 0.06224197 37.961586 0.06148243 C41.04816898 0.06175406 44.13472439 0.06723414 47.22129822 0.07448387 C48.70450125 0.07767134 50.18770742 0.07963813 51.6709137 0.08037758 C53.74188585 0.08254032 55.81272361 0.09128308 57.88366699 0.10197449 C59.06344116 0.10578629 60.24321533 0.10959808 61.45874023 0.11352539 C64.22937012 0.24723816 64.22937012 0.24723816 66.22937012 1.24723816 C67.04187012 3.62223816 67.04187012 3.62223816 67.22937012 6.24723816 C65.43419608 8.99481368 64.01516377 9.30206914 60.79577637 10.12614441 C59.46318382 10.365667 58.12838651 10.59317894 56.79187012 10.80973816 C50.68339562 11.64149985 50.68339562 11.64149985 45.22937012 14.24723816 C43.8435366 17.99190856 44.08419568 21.93719813 44.08892822 25.87409973 C44.0859571 26.64633672 44.08298598 27.41857371 44.07992482 28.21421182 C44.0712472 30.80417037 44.06973035 33.39408263 44.0682373 35.98405457 C44.06360838 37.84031778 44.05858362 39.69658003 44.05319214 41.55284119 C44.04007122 46.59856903 44.03362349 51.64428357 44.02918148 56.69002581 C44.02624958 59.84400009 44.02214449 62.99797075 44.01767731 66.15194321 C44.00400169 76.02442617 43.99433598 85.89690083 43.99047542 95.76939261 C43.98599775 107.1569469 43.96846362 118.54438097 43.93947482 129.93189871 C43.91783554 138.73885932 43.90776989 147.54578617 43.9064343 156.35277307 C43.90538766 161.61022016 43.89951015 166.86755425 43.88161469 172.1249733 C43.86509573 177.07439562 43.86299707 182.02362048 43.87175369 186.97306061 C43.87252208 188.78460851 43.86820757 190.59616719 43.85829544 192.40768814 C43.51797969 207.19742344 43.51797969 207.19742344 48.85437012 220.68473816 C56.4203994 225.662389 64.61567294 226.27875502 73.35437012 224.67301941 C83.68643866 222.27993 91.05361499 217.98453856 96.75671387 208.86833191 C102.66738732 198.34827386 104.52456743 187.42919557 106.44250488 175.62858582 C106.63256104 174.49211609 106.82261719 173.35564636 107.01843262 172.18473816 C107.18037109 171.1625116 107.34230957 170.14028503 107.50915527 169.08708191 C108.3705751 165.69045972 109.72131334 162.75529493 112.22937012 160.24723816 C114.56881748 160.53453871 116.90328442 160.86660595 119.22937012 161.24723816 C120.1650326 164.05422561 120.32419294 165.47779197 120.21374512 168.34880066 C120.18103516 169.21198914 120.1483252 170.07517761 120.11462402 170.96452332 C120.04767334 172.40384216 120.04767334 172.40384216 119.97937012 173.87223816 C119.93344727 174.88463562 119.88752441 175.89703308 119.84020996 176.94010925 C119.34623052 186.9960153 118.72248829 197.04539304 118.04101562 207.0901947 C117.91696412 208.93924366 117.79706488 210.78857604 117.68139648 212.63816833 C117.51490406 215.27193169 117.33132385 217.90398786 117.14343262 220.53630066 C117.09645233 221.32609314 117.04947205 222.11588562 117.00106812 222.92961121 C116.64466598 227.61031273 116.00418637 231.30823631 113.22937012 235.24723816 C107.89407761 237.7250204 102.65350769 237.52379276 96.89709473 237.49015808 C95.87037155 237.49205643 94.84364838 237.49395477 93.78581238 237.49591064 C90.40103454 237.49960727 87.01647256 237.48893005 83.63171387 237.47770691 C81.27572149 237.47651438 78.91972863 237.4760621 76.56373596 237.47631836 C71.63022884 237.47475542 66.69679448 237.46647986 61.76330566 237.45304871 C55.43925235 237.43604993 49.11527889 237.43223478 42.79120541 237.43299389 C37.92793516 237.43272199 33.06468237 237.42723774 28.20141792 237.41999245 C25.86941218 237.41681045 23.53740445 237.41483947 21.20539665 237.41409874 C17.94764714 237.41193076 14.6899823 237.40317673 11.43225098 237.39250183 C9.98658752 237.39318161 9.98658752 237.39318161 8.51171875 237.39387512 C7.62161606 237.38961014 6.73151337 237.38534515 5.81443787 237.38095093 C5.04515929 237.37927508 4.27588072 237.37759924 3.48329067 237.37587261 C0.99336954 237.23376927 -1.33858973 236.78743759 -3.77062988 236.24723816 C-4.45812988 233.43473816 -4.45812988 233.43473816 -4.77062988 230.24723816 C-2.76938714 227.59237489 -1.04950645 226.82041196 2.17077637 226.25505066 C2.91907715 226.10680847 3.66737793 225.95856628 4.43835449 225.80583191 C6.00977253 225.51632585 7.582737 225.23509361 9.15710449 224.96208191 C9.90411621 224.8112616 10.65112793 224.66044128 11.42077637 224.50505066 C12.10341553 224.38275085 12.78605469 224.26045105 13.48937988 224.13444519 C15.42180827 223.35848848 15.42180827 223.35848848 16.32224655 221.19385338 C17.4592284 217.50058803 17.50617276 214.0385269 17.4833374 210.21418762 C17.48645738 209.41039464 17.48957736 208.60660167 17.49279189 207.77845132 C17.50076266 205.08779634 17.49445179 202.39736745 17.48815918 199.70671082 C17.49086949 197.77646757 17.49443065 195.84622536 17.4987793 193.91598511 C17.50790197 188.67421705 17.50435919 183.43252767 17.49802113 178.19075823 C17.49295908 172.70473041 17.49765329 167.21870935 17.50079346 161.73268127 C17.50443311 152.51746918 17.49963465 143.30228914 17.4901123 134.08708191 C17.47923422 123.43696064 17.48274865 112.78691599 17.49376512 102.13679659 C17.50284569 92.9918571 17.50411929 83.84694066 17.49888778 74.70199811 C17.4957715 69.24069232 17.49534924 63.77942252 17.50196075 58.31811905 C17.50774453 53.18157943 17.50371834 48.04513838 17.49217224 42.90860939 C17.48953091 41.02485505 17.49028174 39.1410924 17.49469757 37.25734138 C17.50017542 34.68286813 17.49329169 32.1087093 17.4833374 29.53425598 C17.48779885 28.79153966 17.49226029 28.04882333 17.49685693 27.28360045 C17.46203945 22.63003142 16.87195844 18.61043962 15.22937012 14.24723816 C9.54080396 10.78463267 2.66867124 9.73811083 -3.77062988 8.24723816 C-4.39562988 5.37223816 -4.39562988 5.37223816 -4.77062988 2.24723816 C-2.77062988 0.24723816 -2.77062988 0.24723816 0 0 Z " fill="#6C6FB7" transform="translate(36.7706298828125,24.752761840820313)"/>
<path d="M0 0 C1.91796875 1.32421875 1.91796875 1.32421875 4.73046875 3.94921875 C4.73046875 4.60921875 4.73046875 5.26921875 4.73046875 5.94921875 C5.39046875 5.94921875 6.05046875 5.94921875 6.73046875 5.94921875 C9.20877659 11.83519988 9.95596582 18.08062261 8.0078125 24.23046875 C6.0255949 28.5319612 3.78369 31.351 -0.26953125 33.94921875 C-5.1106774 35.56293413 -10.45564508 35.92611508 -15.33984375 34.23046875 C-19.61350756 31.93638082 -23.34161397 28.85752323 -24.8515625 24.125 C-25.96746872 18.31603023 -26.3384224 12.13609633 -23.45703125 6.82421875 C-21.26953125 3.94921875 -21.26953125 3.94921875 -18.26953125 2.94921875 C-18.26953125 2.28921875 -18.26953125 1.62921875 -18.26953125 0.94921875 C-12.50871875 -1.6400273 -5.92140181 -2.74157846 0 0 Z " fill="#6B6EB9" transform="translate(554.26953125,29.05078125)"/>
<path d="M0 0 C1.18154663 -0.00074776 1.18154663 -0.00074776 2.38696289 -0.00151062 C4.05129521 0.00082843 5.71563116 0.01054709 7.37988281 0.02709961 C9.92805599 0.05069381 12.47518284 0.04765939 15.0234375 0.04101562 C16.64063124 0.0465925 18.25782057 0.05370244 19.875 0.0625 C20.63756104 0.06158859 21.40012207 0.06067719 22.18579102 0.05973816 C25.96559414 0.11042364 27.71580539 0.21548484 30.9375 2.36328125 C31.96901425 5.45782399 32.06078811 7.56828892 32.05775452 10.811203 C32.05912918 11.94282364 32.06050385 13.07444427 32.06192017 14.24035645 C32.05652725 16.10367615 32.05652725 16.10367615 32.05102539 18.00463867 C32.05117142 19.31205521 32.05131744 20.61947174 32.0514679 21.96650696 C32.05175515 25.55300549 32.04587007 29.13947067 32.03889394 32.72596145 C32.03264839 36.47358135 32.03205565 40.22120199 32.03086853 43.96882629 C32.02775876 51.06609362 32.01955014 58.16334556 32.00951904 65.26060611 C31.99834691 73.34032636 31.99284468 81.42004734 31.98782361 89.49977338 C31.97736724 106.12095168 31.95977465 122.7421145 31.9375 139.36328125 C31.2775 139.36328125 30.6175 139.36328125 29.9375 139.36328125 C29.12427406 135.8058774 28.81707446 132.53756573 28.83070374 128.8915863 C28.83297722 127.26180847 28.83297722 127.26180847 28.83529663 125.59910583 C28.842034 124.41712112 28.84877136 123.23513641 28.85571289 122.01733398 C28.85877945 120.76481842 28.86184601 119.51230286 28.86500549 118.22183228 C28.872157 115.50339612 28.88109258 112.78503151 28.89290047 110.06661797 C28.91122488 105.76789445 28.92080025 101.4691789 28.92881775 97.17042542 C28.95294687 84.94862356 28.98888642 72.72687076 29.03344727 60.50512695 C29.05799719 53.75060257 29.07535718 46.99609724 29.08500665 40.24153477 C29.09154769 35.96830089 29.10710175 31.6952243 29.12932408 27.42204463 C29.14380639 24.14132029 29.14523439 20.86058568 29.14868164 17.57983398 C29.15744324 16.39582504 29.16620483 15.2118161 29.17523193 13.9919281 C29.17392776 12.90822937 29.1726236 11.82453064 29.17127991 10.70799255 C29.17442231 9.76688346 29.17756472 8.82577436 29.18080235 7.85614681 C28.92567441 5.24211676 28.26511449 3.60782352 26.9375 1.36328125 C22.16845576 1.48170769 17.39961233 1.60596812 12.63085938 1.7355957 C11.00915643 1.77886056 9.38741042 1.82054153 7.765625 1.8605957 C5.43215973 1.91850339 3.09890957 1.98213823 0.765625 2.046875 C0.04256165 2.06358749 -0.68050171 2.08029999 -1.42547607 2.09751892 C-4.76140556 2.19530774 -7.86804016 2.34784775 -11.0625 3.36328125 C-8.33806091 -0.67730232 -4.39825397 -0.05311943 0 0 Z " fill="#6A6B9A" transform="translate(245.0625,92.63671875)"/>
<path d="M0 0 C0.66 0 1.32 0 2 0 C3.17417134 2.34834269 3.12329052 3.72357478 3.12025452 6.34060669 C3.12162918 7.25208466 3.12300385 8.16356262 3.12442017 9.10266113 C3.12082489 10.10535034 3.11722961 11.10803955 3.11352539 12.14111328 C3.11367142 13.19479095 3.11381744 14.24846863 3.1139679 15.33407593 C3.1132692 18.8295088 3.10547881 22.3248889 3.09765625 25.8203125 C3.09579192 28.23884044 3.09436809 30.65736876 3.09336853 33.07589722 C3.08954456 39.45128415 3.07971529 45.82664841 3.06866455 52.20202637 C3.05844785 58.70369154 3.05387035 65.20536037 3.04882812 71.70703125 C3.03809293 84.47136386 3.0212093 97.23568072 3 110 C2.01 109.34 1.02 108.68 0 108 C-0.36914349 106.06722832 -0.36914349 106.06722832 -0.36076355 103.65939331 C-0.36488754 102.74791534 -0.36901154 101.83643738 -0.3732605 100.89733887 C-0.36247467 99.89464966 -0.35168884 98.89196045 -0.34057617 97.85888672 C-0.34101425 96.80520905 -0.34145233 95.75153137 -0.34190369 94.66592407 C-0.33980751 91.17032577 -0.31643703 87.67520239 -0.29296875 84.1796875 C-0.28737576 81.76116193 -0.28310426 79.34263296 -0.28010559 76.92410278 C-0.26863353 70.54863148 -0.23914592 64.17336416 -0.20599365 57.79797363 C-0.17534367 51.29633342 -0.16161111 44.79466034 -0.14648438 38.29296875 C-0.11427859 25.52855864 -0.06362775 12.76429015 0 0 Z " fill="#6768B1" transform="translate(815,123)"/>
<path d="M0 0 C0.33 0 0.66 0 1 0 C1.04668014 14.30766136 1.08183637 28.61531094 1.10362434 42.92303276 C1.11407935 49.56606556 1.1282698 56.20904735 1.15087891 62.85205078 C1.17254614 69.2581139 1.18455568 75.66412784 1.18975449 82.07022476 C1.19346127 84.51915385 1.20069925 86.96808012 1.21146011 89.41698837 C1.22589367 92.83648329 1.22798136 96.25577269 1.22705078 99.67529297 C1.23783661 101.207379 1.23783661 101.207379 1.24884033 102.77041626 C1.246091 103.69872253 1.24334167 104.62702881 1.24050903 105.58346558 C1.24235262 106.39279982 1.24419621 107.20213406 1.24609566 108.03599358 C1 110 1 110 -1 112 C-1.86829579 107.5104922 -2.12653206 103.26459958 -2.12939453 98.69482422 C-2.13114685 97.98789932 -2.13289917 97.28097443 -2.13470459 96.55262756 C-2.13909445 94.21995563 -2.13618823 91.88736019 -2.1328125 89.5546875 C-2.13348799 87.90398138 -2.13446005 86.25327536 -2.13571167 84.60256958 C-2.13718615 81.13087015 -2.13504812 77.65919643 -2.13037109 74.1875 C-2.124771 69.82652545 -2.12798954 65.46561319 -2.13380814 61.10464096 C-2.15216878 44.92053578 -2.1055082 28.7464981 -1.5546875 12.5703125 C-1.51594513 11.39669159 -1.47720276 10.22307068 -1.43728638 9.0138855 C-1.12789438 1.12789438 -1.12789438 1.12789438 0 0 Z " fill="#6060AF" transform="translate(472,134)"/>
<path d="M0 0 C0.33 1.32 0.66 2.64 1 4 C1.61488281 4.04898438 2.22976563 4.09796875 2.86328125 4.1484375 C4.07564453 4.26058594 4.07564453 4.26058594 5.3125 4.375 C6.51326172 4.47941406 6.51326172 4.47941406 7.73828125 4.5859375 C10 5 10 5 13 7 C14.5159375 7.433125 14.5159375 7.433125 16.0625 7.875 C19 9 19 9 20.16856194 10.75789261 C21.11964005 13.32262876 21.24627576 15.26528775 21.24050903 17.99871826 C21.24325836 19.00550125 21.24600769 20.01228424 21.24884033 21.04957581 C21.24164978 22.14793259 21.23445923 23.24628937 21.22705078 24.37792969 C21.22734283 25.53918869 21.22763489 26.70044769 21.22793579 27.89689636 C21.22654148 31.73863168 21.2109752 35.58017352 21.1953125 39.421875 C21.19158273 42.08417082 21.18863722 44.7464559 21.18673706 47.40875244 C21.18052279 53.70207001 21.1641127 59.99531802 21.14403808 66.28860497 C21.12167743 73.45421061 21.11068524 80.61981957 21.10064721 87.78545141 C21.07974642 102.52366983 21.04457147 117.2618337 21 132 C20.01 132.33 19.02 132.66 18 133 C18.00276538 132.10381612 18.00276538 132.10381612 18.00558662 131.18952751 C18.04978499 116.64175278 18.08286598 102.09398202 18.10362434 87.54615593 C18.11393015 80.5108893 18.12797716 73.47566752 18.15087891 66.44042969 C18.1729673 59.65180155 18.18456716 52.86322007 18.18975449 46.07455826 C18.19345152 43.48379915 18.20067081 40.8930426 18.21146011 38.30230331 C18.22596517 34.6752749 18.22797832 31.04843944 18.22705078 27.42138672 C18.23424133 26.34892197 18.24143188 25.27645721 18.24884033 24.17149353 C18.26986617 16.87037031 18.26986617 16.87037031 16 10 C12.80063587 8.72745237 12.80063587 8.72745237 9.0625 8.3125 C2.40832265 7.30095494 2.40832265 7.30095494 0.0390625 5.5546875 C-1 4 -1 4 -0.6875 1.8125 C-0.460625 1.214375 -0.23375 0.61625 0 0 Z " fill="#6665A8" transform="translate(515,111)"/>
<path d="M0 0 C0.99 0 1.98 0 3 0 C3 38.61 3 77.22 3 117 C2.67 117 2.34 117 2 117 C0.40469587 90.47429539 -0.28671724 63.95353998 -0.65248489 37.38663864 C-0.68761097 34.86703993 -0.72471261 32.34747632 -0.76217651 29.82791138 C-0.82101657 25.82291831 -0.87381108 21.81789071 -0.92151642 17.81274986 C-0.9399082 16.31360586 -0.95985868 14.81448014 -0.98140717 13.31537819 C-1.01035814 11.25438157 -1.03285935 9.19341878 -1.0534668 7.13232422 C-1.06741989 5.96740448 -1.08137299 4.80248474 -1.0957489 3.6022644 C-1 1 -1 1 0 0 Z " fill="#6969A8" transform="translate(492,125)"/>
<path d="M0 0 C0.81905115 2.86975518 1.12388937 5.41071489 1.12025452 8.39129639 C1.12162918 9.26345291 1.12300385 10.13560944 1.12442017 11.03419495 C1.12082489 11.98293991 1.11722961 12.93168488 1.11352539 13.90917969 C1.11367142 14.91438156 1.11381744 15.91958344 1.1139679 16.95524597 C1.11327128 20.27747761 1.10549058 23.59965316 1.09765625 26.921875 C1.09579118 29.22544321 1.0943677 31.52901182 1.09336853 33.83258057 C1.08955037 39.89557999 1.07972604 45.95855545 1.06866455 52.02154541 C1.05843538 58.20837073 1.05386768 64.39519991 1.04882812 70.58203125 C1.03810317 82.72136469 1.02103513 94.86068035 1 107 C-2.83342884 103.41648655 -2.94323113 100.6065821 -3.12698364 95.40631104 C-3.13288853 94.00298257 -3.13334452 92.59962439 -3.12939453 91.19628906 C-3.13114685 90.42663315 -3.13289917 89.65697723 -3.13470459 88.86399841 C-3.13909058 86.33118406 -3.13619775 83.79844001 -3.1328125 81.265625 C-3.1334862 79.50396715 -3.13445677 77.74230939 -3.13571167 75.98065186 C-3.137184 72.29552319 -3.13504799 68.61041881 -3.13037109 64.92529297 C-3.1246573 60.19152025 -3.12796615 55.45780403 -3.13394356 50.72403336 C-3.13754744 47.09020558 -3.13641168 43.45639134 -3.13381577 39.82256317 C-3.13314688 38.07616926 -3.13397358 36.32977414 -3.13629532 34.58338165 C-3.13882082 32.15093195 -3.13498351 29.71857553 -3.12939453 27.28613281 C-3.13141876 26.55887497 -3.13344299 25.83161713 -3.13552856 25.08232117 C-3.11426624 20.11426624 -3.11426624 20.11426624 -2 19 C-1.92680379 16.30345146 -1.90757463 13.63308542 -1.9375 10.9375 C-1.94201172 10.17888672 -1.94652344 9.42027344 -1.95117188 8.63867188 C-1.9629932 6.75908129 -1.98092922 4.87953101 -2 3 C-1.34 3 -0.68 3 0 3 C0 2.01 0 1.02 0 0 Z " fill="#6768A9" transform="translate(337,140)"/>
<path d="M0 0 C0.66 0 1.32 0 2 0 C2 31.02 2 62.04 2 94 C-1 91 -1 91 -1.32279968 87.18452454 C-1.31373594 85.55815718 -1.28775006 83.93183385 -1.2487793 82.3059082 C-1.23946381 81.4178952 -1.23014832 80.5298822 -1.22055054 79.61495972 C-1.18614504 76.67651461 -1.13025683 73.73888692 -1.07421875 70.80078125 C-1.04618981 68.76484421 -1.01949897 66.72888835 -0.99409485 64.69291687 C-0.92359369 59.33163619 -0.83488227 53.9708044 -0.74243164 48.60986328 C-0.65131532 43.14045412 -0.57734647 37.67081637 -0.50195312 32.20117188 C-0.3514586 21.46715369 -0.18173352 10.73353154 0 0 Z " fill="#5E5FAA" transform="translate(617,151)"/>
<path d="M0 0 C0.33 0 0.66 0 1 0 C1.1735898 10.04155621 1.33986197 20.08322114 1.5 30.125 C1.51187725 30.86952171 1.5237545 31.61404343 1.53599167 32.3811264 C1.95690945 58.92225375 2.13266243 85.4552692 2 112 C1.34 112 0.68 112 0 112 C-0.73642523 108.71334752 -1.11788448 105.70218768 -1.08229065 102.33659363 C-1.07525116 101.42940582 -1.06821167 100.52221802 -1.06095886 99.58753967 C-1.04801285 98.60498703 -1.03506683 97.62243439 -1.02172852 96.61010742 C-1.01212097 95.56574524 -1.00251343 94.52138306 -0.99261475 93.44537354 C-0.95967422 89.99866896 -0.91932288 86.55209309 -0.87890625 83.10546875 C-0.85460031 80.71365307 -0.83075699 78.32183265 -0.80735779 75.93000793 C-0.74456408 69.63846429 -0.67548398 63.34700473 -0.60510254 57.05554199 C-0.5343766 50.63407212 -0.46958511 44.21254268 -0.40429688 37.79101562 C-0.27534525 25.19394528 -0.1399551 12.59695266 0 0 Z " fill="#666CA9" transform="translate(275,120)"/>
<path d="M0 0 C0.33 0 0.66 0 1 0 C1.00238835 0.57646397 1.00477671 1.15292793 1.00723743 1.7468605 C1.06656308 15.8211958 1.14222412 29.89536569 1.23571491 43.96951675 C1.28054032 50.77588597 1.31998487 57.5822044 1.34643555 64.38867188 C1.37200144 70.96346934 1.41299453 77.53806815 1.46318626 84.1127243 C1.47980619 86.61475536 1.49135068 89.1168257 1.49761391 91.61890411 C1.50730791 95.13712621 1.53543127 98.65477291 1.56762695 102.17285156 C1.56619186 103.19569244 1.56475677 104.21853333 1.5632782 105.27236938 C1.65666308 112.53951365 3.01814831 119.02500089 5 126 C5.33860377 127.33200465 5.67415678 128.66481646 6 130 C5.34 130 4.68 130 4 130 C3.731875 129.4225 3.46375 128.845 3.1875 128.25 C2.08900746 125.96966989 2.08900746 125.96966989 0.44595623 124.17891312 C-1.32074134 121.51667451 -1.35869958 120.05963537 -1.32279968 116.88739014 C-1.31850952 115.85536469 -1.31421936 114.82333923 -1.30979919 113.76004028 C-1.28966263 112.63363129 -1.26952606 111.50722229 -1.2487793 110.34667969 C-1.23946381 109.15615997 -1.23014832 107.96564026 -1.22055054 106.73904419 C-1.19207713 103.47880657 -1.15015414 100.21907457 -1.10225272 96.95907497 C-1.05534806 93.55056154 -1.02563323 90.14189934 -0.99409485 86.73321533 C-0.93177872 80.2803848 -0.85400392 73.82783689 -0.77067453 67.37524724 C-0.67654907 60.02837694 -0.59965739 52.68135791 -0.52421319 45.33427572 C-0.36865146 30.22260644 -0.19144752 15.11126044 0 0 Z " fill="#6869A0" transform="translate(196,111)"/>
<path d="M0 0 C3.3511027 3.3511027 3.12474988 7.45429132 3.13371277 12.00939941 C3.13797775 12.99350296 3.14224274 13.97760651 3.14663696 14.99153137 C3.14618378 16.05973618 3.14573059 17.12794098 3.14526367 18.22851562 C3.15030159 19.92931526 3.15030159 19.92931526 3.15544128 21.66447449 C3.16493874 25.41174414 3.16689364 29.15896906 3.16796875 32.90625 C3.17118159 35.51029478 3.17454568 38.11433939 3.17805481 40.71838379 C3.18444372 46.17570283 3.18593783 51.63300975 3.18530273 57.09033203 C3.18470156 63.39388174 3.19526396 69.69734597 3.2110464 76.00087404 C3.22570458 82.0722613 3.22929066 88.14360756 3.22869301 94.2150116 C3.22987436 96.79542897 3.23430479 99.37584696 3.24202538 101.95625305 C3.251804 105.56140278 3.24895575 109.16633121 3.24291992 112.77148438 C3.24853943 113.83968918 3.25415894 114.90789398 3.25994873 116.00846863 C3.253657 117.48462395 3.253657 117.48462395 3.24723816 118.99060059 C3.24778293 119.84229576 3.24832769 120.69399094 3.24888897 121.57149506 C2.84774658 125.48559491 1.78465157 128.21534843 -1 131 C-3.625 130.625 -3.625 130.625 -6 130 C-4.515 129.01 -4.515 129.01 -3 128 C-0.39733116 125.79774175 0.35888148 124.31935581 1 121 C1.08809783 119.47428071 1.12625723 117.9452374 1.12698364 116.41697693 C1.12980347 115.50181808 1.13262329 114.58665924 1.13552856 113.64376831 C1.13249222 112.14839035 1.13249222 112.14839035 1.12939453 110.62280273 C1.13114685 109.56699509 1.13289917 108.51118744 1.13470459 107.42338562 C1.13911158 103.92677168 1.13618766 100.43020822 1.1328125 96.93359375 C1.13348622 94.49943533 1.13445682 92.06527697 1.13571167 89.63111877 C1.13718737 84.52254599 1.13503946 79.41399068 1.13037109 74.30541992 C1.12469506 67.77788355 1.1279401 61.25038849 1.13394356 54.72285366 C1.1375707 49.69120477 1.13640034 44.65956553 1.13381577 39.62791634 C1.13315135 37.22271787 1.13395788 34.81751851 1.13629532 32.41232109 C1.13885485 29.03584374 1.13493409 25.65943152 1.12939453 22.28295898 C1.13141876 21.30020996 1.13344299 20.31746094 1.13552856 19.30493164 C1.11597481 12.82198781 0.68706784 6.44590992 0 0 Z " fill="#6768AE" transform="translate(390,121)"/>
<path d="M0 0 C0.66 0.66 1.32 1.32 2 2 C1.34 2 0.68 2 0 2 C0.10719065 17.33352343 0.21994333 32.66699894 0.33933926 48.00043201 C0.39464531 55.11981883 0.44812301 62.23921067 0.49731445 69.35864258 C0.54476307 76.2250974 0.59728305 83.09149834 0.65294075 89.95789146 C0.67337214 92.58181179 0.6920839 95.20574607 0.70907402 97.82969093 C0.73310055 101.49564296 0.76315771 105.16149841 0.79467773 108.82739258 C0.8004332 109.9199939 0.80618866 111.01259521 0.81211853 112.13830566 C0.82190735 113.13529984 0.83169617 114.13229401 0.84178162 115.15950012 C0.84823417 116.02690732 0.85468672 116.89431452 0.8613348 117.78800678 C0.91616357 120.17558036 0.91616357 120.17558036 2 123 C0.02 124.32 -1.96 125.64 -4 127 C-3.6749605 126.28214482 -3.349921 125.56428965 -3.01503181 124.82468128 C-1.97201251 121.92211502 -1.75312376 119.87090726 -1.75949097 116.80509949 C-1.75674164 115.78011353 -1.75399231 114.75512756 -1.75115967 113.69908142 C-1.7619455 112.02888695 -1.7619455 112.02888695 -1.77294922 110.32495117 C-1.77265717 109.144039 -1.77236511 107.96312683 -1.77206421 106.74642944 C-1.77321696 103.51741997 -1.78323211 100.28858492 -1.79721212 97.05961013 C-1.80973351 93.68170034 -1.81089109 90.30378696 -1.81326294 86.92585754 C-1.81947358 80.53340904 -1.83587874 74.14102913 -1.85596192 67.74861079 C-1.87833389 60.46932016 -1.88931761 53.19002621 -1.89935279 45.91070974 C-1.92024535 30.94043497 -1.95541321 15.97022435 -2 1 C-1.34 0.67 -0.68 0.34 0 0 Z " fill="#6A6AA3" transform="translate(677,123)"/>
<path d="M0 0 C0.66 0.33 1.32 0.66 2 1 C2.73075648 3.3140622 3.40138258 5.64828869 4 8 C9.26170694 6.58832253 12.72171358 4.25149768 17 1 C17.33 3.31 17.66 5.62 18 8 C21.07331888 8.26030371 21.07331888 8.26030371 23.5625 6.4375 C24.7690625 5.7259375 24.7690625 5.7259375 26 5 C26.66 5.33 27.32 5.66 28 6 C27.37351562 6.48210937 26.74703125 6.96421875 26.1015625 7.4609375 C25.28429687 8.09257813 24.46703125 8.72421875 23.625 9.375 C22.81289063 10.00148438 22.00078125 10.62796875 21.1640625 11.2734375 C18.95776805 12.96773494 18.95776805 12.96773494 17 15 C17 13.68 17 12.36 17 11 C16.34 11 15.68 11 15 11 C14.67 10.01 14.34 9.02 14 8 C13.01 7.67 12.02 7.34 11 7 C11.66 8.98 12.32 10.96 13 13 C12.01 12.67 11.02 12.34 10 12 C10 11.34 10 10.68 10 10 C8.35 10.66 6.7 11.32 5 12 C1.06153846 7.69230769 1.06153846 7.69230769 0.75 4.1875 C0.8325 3.465625 0.915 2.74375 1 2 C0.34 1.67 -0.32 1.34 -1 1 C-0.67 0.67 -0.34 0.34 0 0 Z " fill="#6A6DAA" transform="translate(409,106)"/>
<path d="M0 0 C0.94875 0.45375 1.8975 0.9075 2.875 1.375 C6.77698678 3.07463841 10.67603968 3.7993632 14.86328125 4.47265625 C17 5 17 5 19 7 C18.625 9.625 18.625 9.625 18 12 C15.125 12.125 15.125 12.125 12 12 C11.34 11.34 10.68 10.68 10 10 C7.93125966 9.3574765 7.93125966 9.3574765 6 9 C6.66 8.34 7.32 7.68 8 7 C6.68 7 5.36 7 4 7 C4 6.34 4 5.68 4 5 C3.01 4.67 2.02 4.34 1 4 C1 3.34 1 2.68 1 2 C0.34 1.67 -0.32 1.34 -1 1 C-0.67 0.67 -0.34 0.34 0 0 Z " fill="#6769BA" transform="translate(277,232)"/>
<path d="M0 0 C0.99 0.33 1.98 0.66 3 1 C3.02685938 3.14576637 3.04633088 5.29162645 3.0625 7.4375 C3.07410156 8.63246094 3.08570313 9.82742187 3.09765625 11.05859375 C3 14 3 14 2 15 C1.61384013 23.69995465 1.99334018 32.35351117 3 41 C1.68 41.66 0.36 42.32 -1 43 C-0.67 28.81 -0.34 14.62 0 0 Z " fill="#6570A8" transform="translate(793,122)"/>
<path d="M0 0 C1.13953125 -0.01417969 2.2790625 -0.02835937 3.453125 -0.04296875 C7.4312278 0.23512137 10.23379251 1.42939625 13.75 3.1875 C14.375 5.75 14.375 5.75 14.75 8.1875 C14.17894531 7.89101562 13.60789062 7.59453125 13.01953125 7.2890625 C2.92867595 2.39126354 -4.74642133 2.64346034 -15.25 6.1875 C-16.24 6.5175 -17.23 6.8475 -18.25 7.1875 C-18.25 6.5275 -18.25 5.8675 -18.25 5.1875 C-14.4685127 2.19748678 -12.08652732 0.77294052 -7.25 1.1875 C-5.40174303 -0.66075697 -2.4758947 0.01387833 0 0 Z " fill="#6668A4" transform="translate(656.25,105.8125)"/>
<path d="M0 0 C-1.65 1.98 -3.3 3.96 -5 6 C-5.99 5.67 -6.98 5.34 -8 5 C-8.33 5.66 -8.66 6.32 -9 7 C-4.71 8.32 -0.42 9.64 4 11 C4 11.66 4 12.32 4 13 C1.53961507 12.55102465 -0.91789621 12.09131167 -3.375 11.625 C-4.07367187 11.49867187 -4.77234375 11.37234375 -5.4921875 11.2421875 C-10.7734375 10.2265625 -10.7734375 10.2265625 -13 8 C-13.125 5.375 -13.125 5.375 -13 3 C-4.57142857 -0.42857143 -4.57142857 -0.42857143 0 0 Z " fill="#6769AB" transform="translate(589,108)"/>
<path d="M0 0 C2.78656957 5.57313913 2.90447472 7.76917417 2 14 C1.67 14 1.34 14 1 14 C1 20.93 1 27.86 1 35 C0.01 35.495 0.01 35.495 -1 36 C-1.02465098 31.03377651 -1.04283649 26.06758834 -1.05493164 21.10131836 C-1.0599719 19.41055684 -1.06680405 17.71979971 -1.07543945 16.02905273 C-1.08751857 13.60399293 -1.09323123 11.17899056 -1.09765625 8.75390625 C-1.10281754 7.99348526 -1.10797882 7.23306427 -1.11329651 6.44960022 C-1.11349238 4.6326743 -1.06197277 2.81586873 -1 1 C-0.67 0.67 -0.34 0.34 0 0 Z " fill="#6370AA" transform="translate(794,177)"/>
<path d="M0 0 C0.33 0 0.66 0 1 0 C0.91859225 3.37594805 0.80579799 6.75015913 0.6875 10.125 C0.65366211 11.55199219 0.65366211 11.55199219 0.61914062 13.0078125 C0.41664337 18.3095587 0.13436178 22.50544349 -3 27 C-6.1875 27.875 -6.1875 27.875 -9 28 C-8.20207031 27.36707031 -7.40414062 26.73414063 -6.58203125 26.08203125 C-3.01163438 22.51163438 -3.00442119 18.52532098 -2.6875 13.6875 C-2.61466797 12.85154297 -2.54183594 12.01558594 -2.46679688 11.15429688 C-2.29109899 9.10448817 -2.14279165 7.05236352 -2 5 C-1.67 5 -1.34 5 -1 5 C-0.67 3.35 -0.34 1.7 0 0 Z " fill="#696BA6" transform="translate(153,233)"/>
<path d="M0 0 C0.61488281 0.22816406 1.22976563 0.45632812 1.86328125 0.69140625 C2.67152344 0.97886719 3.47976563 1.26632813 4.3125 1.5625 C5.51326172 1.99755859 5.51326172 1.99755859 6.73828125 2.44140625 C9.1433174 3.24915625 9.1433174 3.24915625 12 2 C12 2.99 12 3.98 12 5 C12.804375 5.2475 13.60875 5.495 14.4375 5.75 C17 7 17 7 17.8125 9.125 C17.874375 9.74375 17.93625 10.3625 18 11 C17.071875 10.360625 16.14375 9.72125 15.1875 9.0625 C9.06008739 5.53081412 1.88755828 5.95027034 -5 6 C-3.74821404 3.49642808 -2.00018842 1.93566621 0 0 Z " fill="#6669AD" transform="translate(447,103)"/>
<path d="M0 0 C0.33 0 0.66 0 1 0 C1 4.29 1 8.58 1 13 C2.65 13.33 4.3 13.66 6 14 C6.226875 13.4225 6.45375 12.845 6.6875 12.25 C8.32916107 9.43572387 10.43559053 7.97262267 13 6 C13.33 5.34 13.66 4.68 14 4 C15.65 4 17.3 4 19 4 C18 5 17 6 16 7 C15.21625 7.804375 14.4325 8.60875 13.625 9.4375 C6.99284436 15.91174717 6.99284436 15.91174717 3.1875 16.25 C2.465625 16.1675 1.74375 16.085 1 16 C-0.50156874 12.99686252 -0.09281204 10.20932478 -0.0625 6.875 C-0.05347656 5.59367188 -0.04445312 4.31234375 -0.03515625 2.9921875 C-0.02355469 2.00476563 -0.01195312 1.01734375 0 0 Z " fill="#6D6DA9" transform="translate(254,247)"/>
<path d="M0 0 C-0.33 0.66 -0.66 1.32 -1 2 C-1.99 2 -2.98 2 -4 2 C-4.33 2.66 -4.66 3.32 -5 4 C-6.32 4 -7.64 4 -9 4 C-8.51867924 6.05351535 -8.51867924 6.05351535 -7 8 C-3.67074822 8.92709868 -3.67074822 8.92709868 0.125 9.25 C1.40632813 9.39953125 2.68765625 9.5490625 4.0078125 9.703125 C4.99523437 9.80109375 5.98265625 9.8990625 7 10 C7 10.33 7 10.66 7 11 C4.9377952 11.054348 2.87517184 11.09294961 0.8125 11.125 C-0.33605469 11.14820313 -1.48460937 11.17140625 -2.66796875 11.1953125 C-5.94432794 11.00326331 -8.10602026 10.51336555 -11 9 C-12.32284898 6.07083439 -12.04059132 5.12177395 -11 2 C-7.24092359 0.37676246 -4.07913787 -0.23994929 0 0 Z " fill="#6B6DA3" transform="translate(462,251)"/>
<path d="M0 0 C0.66 0 1.32 0 2 0 C3.79760213 3.81990452 4.28743526 6.78428287 4 11 C3.67 11.33 3.34 11.66 3 12 C2.8415735 14.0708472 2.74875578 16.14678029 2.68359375 18.22265625 C2.64169922 19.48271484 2.59980469 20.74277344 2.55664062 22.04101562 C2.51682404 23.38150736 2.47711186 24.7220022 2.4375 26.0625 C2.39431958 27.40691523 2.35070544 28.7513166 2.30664062 30.09570312 C2.20014642 33.3970234 2.0981354 36.69842236 2 40 C1.67 40 1.34 40 1 40 C0.67 26.8 0.34 13.6 0 0 Z " fill="#7474B5" transform="translate(469,123)"/>
<path d="M0 0 C6.56782159 3.2839108 11.21618051 7.1891129 14.375 13.9375 C14.58125 14.618125 14.7875 15.29875 15 16 C14.34 16.66 13.68 17.32 13 18 C12.34 16.02 11.68 14.04 11 12 C9.68 12 8.36 12 7 12 C7 11.34 7 10.68 7 10 C7.66 10 8.32 10 9 10 C8.67 9.34 8.34 8.68 8 8 C7.38125 8.165 6.7625 8.33 6.125 8.5 C4 9 4 9 2 9 C2 8.01 2 7.02 2 6 C2.66 6 3.32 6 4 6 C3.34 5.38125 2.68 4.7625 2 4.125 C0 2 0 2 0 0 Z " fill="#696BAE" transform="translate(681,94)"/>
<path d="M0 0 C9.53168636 -0.37379162 9.53168636 -0.37379162 14 2 C15 3 15 3 15.0625 6.0625 C15.041875 7.031875 15.02125 8.00125 15 9 C12.36 9.66 9.72 10.32 7 11 C7 10.34 7 9.68 7 9 C8.32 8.34 9.64 7.68 11 7 C11 6.34 11 5.68 11 5 C10.34 4.67 9.68 4.34 9 4 C9 3.34 9 2.68 9 2 C6.03 1.67 3.06 1.34 0 1 C0 0.67 0 0.34 0 0 Z " fill="#6B6CA5" transform="translate(627,251)"/>
<path d="M0 0 C0.99 0.33 1.98 0.66 3 1 C2.67 2.32 2.34 3.64 2 5 C2.66 5 3.32 5 4 5 C4 5.66 4 6.32 4 7 C5.91697937 6.85833643 7.83357723 6.71150416 9.75 6.5625 C10.81734375 6.48128906 11.8846875 6.40007812 12.984375 6.31640625 C15.43679962 6.05909227 17.63921291 5.68187782 20 5 C17.57468728 8.26889976 15.55007915 9.3550262 11.625 9.9375 C7.31195264 10.21507235 4.47366721 9.77893377 1 7 C0.125 3.3125 0.125 3.3125 0 0 Z " fill="#6A6BA7" transform="translate(724,145)"/>
<path d="M0 0 C1.64630328 0.14042877 3.29204179 0.28749329 4.9375 0.4375 C6.31228516 0.55931641 6.31228516 0.55931641 7.71484375 0.68359375 C10 1 10 1 11 2 C12.32594105 2.36162029 13.65938457 2.69728039 15 3 C14.67 3.66 14.34 4.32 14 5 C13.17757813 4.90460938 12.35515625 4.80921875 11.5078125 4.7109375 C4.24342501 3.98953181 -1.94589316 4.0732575 -9 6 C-7.25 4 -7.25 4 -5 2 C-3.68 2 -2.36 2 -1 2 C-0.67 1.34 -0.34 0.68 0 0 Z " fill="#6567AC" transform="translate(367,105)"/>
<path d="M0 0 C0.66 0.33 1.32 0.66 2 1 C2 2.32 2 3.64 2 5 C0.35 5.66 -1.3 6.32 -3 7 C-2.90460937 7.83144531 -2.80921875 8.66289063 -2.7109375 9.51953125 C-2.60007812 10.60621094 -2.48921875 11.69289063 -2.375 12.8125 C-2.25898437 13.89144531 -2.14296875 14.97039063 -2.0234375 16.08203125 C-2 19 -2 19 -4 22 C-5.70638272 16.88085184 -6.09709563 10.86242224 -4.140625 5.7578125 C-2.94856455 3.67602578 -1.70581988 1.70581988 0 0 Z " fill="#6A6BA5" transform="translate(534,32)"/>
<path d="M0 0 C0.66 1.32 1.32 2.64 2 4 C-0.67247816 7.61036672 -4.26697704 7.92124924 -8.4375 8.625 C-9.7696544 8.86650919 -11.1016894 9.10867806 -12.43359375 9.3515625 C-13.61050781 9.56554688 -14.78742188 9.77953125 -16 10 C-17.33733352 10.31690368 -18.67351245 10.64038956 -20 11 C-17.52892676 7.29339013 -16.20476626 7.19002819 -12 6 C-10.783125 5.62875 -9.56625 5.2575 -8.3125 4.875 C-5 4 -5 4 -2 4 C-1.34 2.68 -0.68 1.36 0 0 Z " fill="#6668A6" transform="translate(102,27)"/>
<path d="M0 0 C-5.04116513 3.47280264 -8.3132323 5.14595137 -14.4375 5.1875 C-15.85869141 5.20876953 -15.85869141 5.20876953 -17.30859375 5.23046875 C-20.04501644 4.99614518 -21.66428123 4.39701383 -24 3 C-22.25 1.875 -22.25 1.875 -20 1 C-18.66666667 1.66666667 -17.33333333 2.33333333 -16 3 C-13.30844257 3.18633859 -10.70284997 3.090095 -8 3 C-8 2.34 -8 1.68 -8 1 C-4.93251126 -0.86240388 -3.40254489 -1.2151946 0 0 Z " fill="#6969AA" transform="translate(831,259)"/>
<path d="M0 0 C1.54384045 1.54384045 1.16248015 3.03702202 1.2109375 5.18359375 C1.23929688 6.02857422 1.26765625 6.87355469 1.296875 7.74414062 C1.34883903 9.53560067 1.39314595 11.32729965 1.4296875 13.11914062 C1.460625 13.96541016 1.4915625 14.81167969 1.5234375 15.68359375 C1.54325684 16.46275146 1.56307617 17.24190918 1.58349609 18.04467773 C1.84795678 20.40291408 1.84795678 20.40291408 5 22 C3.68 22.33 2.36 22.66 1 23 C-0.14654482 20.70691037 -0.19729117 19.20090344 -0.31640625 16.6484375 C-0.35830078 15.79765625 -0.40019531 14.946875 -0.44335938 14.0703125 C-0.48267578 13.18085937 -0.52199219 12.29140625 -0.5625 11.375 C-0.60568359 10.4778125 -0.64886719 9.580625 -0.69335938 8.65625 C-0.79956861 6.43765717 -0.90161194 4.2189512 -1 2 C-2.65 2 -4.3 2 -6 2 C-6 1.34 -6 0.68 -6 0 C-3.49749232 -1.25125384 -2.59701335 -0.83774624 0 0 Z " fill="#6A6BA2" transform="translate(616,93)"/>
<path d="M0 0 C0 0.66 0 1.32 0 2 C-6.20300905 4.75689291 -11.67279886 5.30181707 -18.375 5.3125 C-19.17212402 5.31765625 -19.96924805 5.3228125 -20.79052734 5.328125 C-24.68863327 5.28168936 -26.69021289 5.20652474 -30 3 C-28.04707031 3.05220703 -28.04707031 3.05220703 -26.0546875 3.10546875 C-24.32813796 3.13361901 -22.60157439 3.16091784 -20.875 3.1875 C-20.0190625 3.21263672 -19.163125 3.23777344 -18.28125 3.26367188 C-11.54996589 3.34134054 -6.40911188 -0.56550987 0 0 Z " fill="#6A6BA8" transform="translate(226,259)"/>
<path d="M0 0 C1.32 0.33 2.64 0.66 4 1 C4.33 3.64 4.66 6.28 5 9 C3.02 9.99 1.04 10.98 -1 12 C-1.66 11.34 -2.32 10.68 -3 10 C-2.505 9.649375 -2.01 9.29875 -1.5 8.9375 C0.73063966 6.05625711 0.19980621 3.52990974 0 0 Z " fill="#6E70BC" transform="translate(771,174)"/>
<path d="M0 0 C-2.38573379 1.89213369 -4.07175348 3.02391783 -7 4 C-7 5.98 -7 7.96 -7 10 C-8.32 9.67 -9.64 9.34 -11 9 C-11.6875 6.6875 -11.6875 6.6875 -12 4 C-8.93267469 -0.29425543 -4.90655109 -0.10903447 0 0 Z " fill="#666AA8" transform="translate(384,251)"/>
<path d="M0 0 C0.94875 0.45375 1.8975 0.9075 2.875 1.375 C6.78103118 3.09237567 10.65124338 3.71616872 14.86328125 4.27734375 C17 5 17 5 18.29296875 7.06640625 C18.52628906 7.70449219 18.75960938 8.34257812 19 9 C18.34 9 17.68 9 17 9 C16.67 8.34 16.34 7.68 16 7 C12.04 7 8.08 7 4 7 C4 6.34 4 5.68 4 5 C3.01 4.67 2.02 4.34 1 4 C1 3.34 1 2.68 1 2 C0.34 1.67 -0.32 1.34 -1 1 C-0.67 0.67 -0.34 0.34 0 0 Z " fill="#686AA4" transform="translate(277,232)"/>
<path d="M0 0 C0.66 0 1.32 0 2 0 C0.43528652 3.84066037 -2.06034127 6.13033315 -5 9 C-6.35555293 10.64864545 -7.69631653 12.31003995 -9 14 C-9.99 12.68 -10.98 11.36 -12 10 C-11.30132813 9.44570312 -10.60265625 8.89140625 -9.8828125 8.3203125 C-8.97273437 7.59585938 -8.06265625 6.87140625 -7.125 6.125 C-6.22007812 5.40570313 -5.31515625 4.68640625 -4.3828125 3.9453125 C-1.99734824 2.06439526 -1.99734824 2.06439526 0 0 Z " fill="#6B6DAA" transform="translate(634,102)"/>
<path d="M0 0 C0.99 0.99 1.98 1.98 3 3 C-0.55284388 6.55284388 -4.65585074 7.11637866 -9.5234375 7.1953125 C-11.14074138 7.18216369 -12.7579902 7.15852652 -14.375 7.125 C-15.20644531 7.11597656 -16.03789063 7.10695313 -16.89453125 7.09765625 C-18.92981337 7.0742622 -20.96494564 7.03839725 -23 7 C-23 6.67 -23 6.34 -23 6 C-21.90300781 5.96261719 -20.80601562 5.92523438 -19.67578125 5.88671875 C-18.22132143 5.82103347 -16.76689584 5.75458701 -15.3125 5.6875 C-14.59126953 5.66494141 -13.87003906 5.64238281 -13.12695312 5.61914062 C-7.51632117 5.33732806 -4.06377432 4.06377432 0 0 Z " fill="#696BA9" transform="translate(768,257)"/>
<path d="M0 0 C-1.051875 0.70125 -2.10375 1.4025 -3.1875 2.125 C-6.80491119 4.68580427 -9.26185771 7.53705533 -12 11 C-12.33 11 -12.66 11 -13 11 C-13 9.35 -13 7.7 -13 6 C-12.01 6 -11.02 6 -10 6 C-10 4.68 -10 3.36 -10 2 C-3.375 -1.125 -3.375 -1.125 0 0 Z " fill="#6D6EA8" transform="translate(358,112)"/>
<path d="M0 0 C0.66 0.33 1.32 0.66 2 1 C-4.44845361 7.80670103 -4.44845361 7.80670103 -9.578125 8.1953125 C-10.45984375 8.17210938 -11.3415625 8.14890625 -12.25 8.125 C-13.14203125 8.10695313 -14.0340625 8.08890625 -14.953125 8.0703125 C-15.96632813 8.03550781 -15.96632813 8.03550781 -17 8 C-17 7.67 -17 7.34 -17 7 C-14.69 7 -12.38 7 -10 7 C-9.67 6.01 -9.34 5.02 -9 4 C-7.35 4 -5.7 4 -4 4 C-3.67 3.34 -3.34 2.68 -3 2 C-2.01 1.34 -1.02 0.68 0 0 Z " fill="#6668A8" transform="translate(558,56)"/>
<path d="M0 0 C0.99 1.485 0.99 1.485 2 3 C4.25609633 5.763718 6.47666237 8.47666237 9 11 C9 11.99 9 12.98 9 14 C9.66 14 10.32 14 11 14 C10.67 14.99 10.34 15.98 10 17 C5.73146913 13.04722347 2.09955288 9.55763997 0 4 C0 2.68 0 1.36 0 0 Z " fill="#686BA7" transform="translate(723,241)"/>
<path d="M0 0 C0.66 0.33 1.32 0.66 2 1 C1.01 2.485 1.01 2.485 0 4 C0 4.99 0 5.98 0 7 C2.97 7.33 5.94 7.66 9 8 C9 8.99 9 9.98 9 11 C3.06 9.515 3.06 9.515 -3 8 C-3.33 6.35 -3.66 4.7 -4 3 C-2.68 2.01 -1.36 1.02 0 0 Z " fill="#66689D" transform="translate(297,109)"/>
<path d="M0 0 C3.69628969 -0.21742881 6.45781172 -0.20764658 9.9375 1.125 C12 3 12 3 12.3125 6.1875 C12.1578125 7.5796875 12.1578125 7.5796875 12 9 C10.02 9.66 8.04 10.32 6 11 C6 10.34 6 9.68 6 9 C6.99 9 7.98 9 9 9 C9 8.34 9 7.68 9 7 C9.66 7 10.32 7 11 7 C11 6.01 11 5.02 11 4 C10.34 4 9.68 4 9 4 C9 3.34 9 2.68 9 2 C6.36 2 3.72 2 1 2 C0.67 1.34 0.34 0.68 0 0 Z " fill="#6E709F" transform="translate(426,251)"/>
<path d="M0 0 C0.33 0 0.66 0 1 0 C1.3690205 19.00455581 1.3690205 19.00455581 -1 27 C-1.33 27 -1.66 27 -2 27 C-2.02687279 25.18757948 -2.04633715 23.37504767 -2.0625 21.5625 C-2.07410156 20.55316406 -2.08570313 19.54382813 -2.09765625 18.50390625 C-2 16 -2 16 -1 15 C-0.76346477 12.47403741 -0.57826308 9.96892793 -0.4375 7.4375 C-0.39431641 6.72658203 -0.35113281 6.01566406 -0.30664062 5.28320312 C-0.20028223 3.52238088 -0.09961154 1.7612168 0 0 Z " fill="#6A6A9D" transform="translate(843,214)"/>
<path d="M0 0 C7.75 0.875 7.75 0.875 10 2 C11.90367354 5.04039947 12.34518251 7.70564514 12.625 11.25 C12.69976563 12.14203125 12.77453125 13.0340625 12.8515625 13.953125 C12.90054688 14.62859375 12.94953125 15.3040625 13 16 C10.29024273 11.9353641 8.54210281 7.62630843 7 3 C3.48809191 1.77030122 3.48809191 1.77030122 0 1 C0 0.67 0 0.34 0 0 Z " fill="#6A6AA7" transform="translate(780,103)"/>
<path d="M0 0 C0 0.33 0 0.66 0 1 C-0.94875 1.309375 -1.8975 1.61875 -2.875 1.9375 C-5.86080408 2.87394742 -5.86080408 2.87394742 -8 4 C-8.2475 4.66 -8.495 5.32 -8.75 6 C-10 8 -10 8 -13.125 8.75 C-14.548125 8.87375 -14.548125 8.87375 -16 9 C-5.61290323 -1.68387097 -5.61290323 -1.68387097 0 0 Z " fill="#6B6DA4" transform="translate(334,93)"/>
<path d="M0 0 C3.96 0.33 7.92 0.66 12 1 C12 1.33 12 1.66 12 2 C8.37 2 4.74 2 1 2 C1 3.65 1 5.3 1 7 C2.32 7.33 3.64 7.66 5 8 C4.34 8.66 3.68 9.32 3 10 C1.68 9.01 0.36 8.02 -1 7 C-0.67 4.69 -0.34 2.38 0 0 Z " fill="#6465AC" transform="translate(155,94)"/>
<path d="M0 0 C0.66 0 1.32 0 2 0 C1.24254317 7.87755102 1.24254317 7.87755102 -2 11 C-4.1875 11.75 -4.1875 11.75 -6 12 C-4 8 -2 4 0 0 Z " fill="#6D6FA9" transform="translate(249,223)"/>
<path d="M0 0 C0.33 1.32 0.66 2.64 1 4 C0.00419922 3.50886719 0.00419922 3.50886719 -1.01171875 3.0078125 C-4.66487912 1.77576626 -8.01055042 1.78040604 -11.8125 1.875 C-12.50537109 1.88402344 -13.19824219 1.89304687 -13.91210938 1.90234375 C-15.60822395 1.92573843 -17.30415871 1.96160359 -19 2 C-19 1.67 -19 1.34 -19 1 C-12.61773055 0.17648136 -6.43255401 -0.12086218 0 0 Z " fill="#696AAE" transform="translate(196,94)"/>
<path d="M0 0 C0.33 0.66 0.66 1.32 1 2 C0.484375 2.391875 -0.03125 2.78375 -0.5625 3.1875 C-1.036875 3.785625 -1.51125 4.38375 -2 5 C-1.76956136 7.65466049 -1.76956136 7.65466049 -1 10 C-2.32 10 -3.64 10 -5 10 C-5.6875 7.1875 -5.6875 7.1875 -6 4 C-4.21220342 1.40769496 -3.03997185 1.01332395 0 0 Z " fill="#676BA9" transform="translate(38,251)"/>
<path d="M0 0 C0.99 0.33 1.98 0.66 3 1 C3 1.99 3 2.98 3 4 C3.99 4.33 4.98 4.66 6 5 C7.1875 8.0625 7.1875 8.0625 8 11 C7.01 11 6.02 11 5 11 C2.19611275 7.4539073 0.53027795 4.5073626 0 0 Z " fill="#686CAA" transform="translate(798,247)"/>
<path d="M0 0 C1 3 1 3 0.1875 5.125 C-1 7 -1 7 -3 8 C-4.875 8.16796875 -4.875 8.16796875 -7 8.1875 C-8.051875 8.20876953 -8.051875 8.20876953 -9.125 8.23046875 C-11 8 -11 8 -13 6 C-13.125 3.375 -13.125 3.375 -13 1 C-11 4 -11 4 -10 6 C-7.71305777 6.50379029 -7.71305777 6.50379029 -5 6 C-3.00977164 4.16038352 -1.61010101 2.20813852 0 0 Z " fill="#6A6DA5" transform="translate(831,235)"/>
<path d="M0 0 C0.33 0 0.66 0 1 0 C1.17760064 4.52881629 1.09143803 7.93331494 -1 12 C-1.66 12.66 -2.32 13.32 -3 14 C-5.625 13.625 -5.625 13.625 -8 13 C-7.01 12.34 -6.02 11.68 -5 11 C-1.18986623 8.25670369 -0.93137535 4.3702997 0 0 Z " fill="#6C6CA4" transform="translate(392,238)"/>
<path d="M0 0 C-1.36560973 4.46926822 -3.31133113 6.23349835 -7 9 C-7.66 9.99 -8.32 10.98 -9 12 C-9 7.4690406 -8.52869421 6.94998954 -5.625 3.75 C-4.99851562 3.04359375 -4.37203125 2.3371875 -3.7265625 1.609375 C-2 0 -2 0 0 0 Z " fill="#686AA5" transform="translate(740,195)"/>
<path d="M0 0 C0.78375 0.04125 1.5675 0.0825 2.375 0.125 C1.055 0.455 -0.265 0.785 -1.625 1.125 C-1.8415625 2.053125 -1.8415625 2.053125 -2.0625 3 C-2.625 5.125 -2.625 5.125 -3.625 7.125 C-4.285 7.125 -4.945 7.125 -5.625 7.125 C-5.955 9.765 -6.285 12.405 -6.625 15.125 C-7.76766516 11.76602455 -7.48411331 9.82049648 -6.3125 6.5 C-6.04824219 5.72398437 -5.78398437 4.94796875 -5.51171875 4.1484375 C-4.17496934 1.09805778 -3.38455463 0.16116927 0 0 Z " fill="#6C6DA4" transform="translate(151.625,184.875)"/>
<path d="M0 0 C-0.53031138 4.5076467 -2.25221116 7.41954788 -5 11 C-5.66 11 -6.32 11 -7 11 C-6.67 10.01 -6.34 9.02 -6 8 C-5.34 8 -4.68 8 -4 8 C-4.66 6.68 -5.32 5.36 -6 4 C-2.25 0 -2.25 0 0 0 Z " fill="#7170AA" transform="translate(840,244)"/>
<path d="M0 0 C1.32 0.66 2.64 1.32 4 2 C2.2126038 3.33905267 0.41995047 4.67109066 -1.375 6 C-2.37273437 6.7425 -3.37046875 7.485 -4.3984375 8.25 C-7 10 -7 10 -9 10 C-9 9.34 -9 8.68 -9 8 C-8.34 8 -7.68 8 -7 8 C-7 7.34 -7 6.68 -7 6 C-6.360625 5.71125 -5.72125 5.4225 -5.0625 5.125 C-2.84793921 4.17176549 -2.84793921 4.17176549 -2 2 C-1.34 2 -0.68 2 0 2 C0 1.34 0 0.68 0 0 Z " fill="#6868AC" transform="translate(236,250)"/>
<path d="M0 0 C0.33 0.66 0.66 1.32 1 2 C1.66 2.165 2.32 2.33 3 2.5 C3.66 2.665 4.32 2.83 5 3 C5.33 3.66 5.66 4.32 6 5 C8.09508223 5.39085466 8.09508223 5.39085466 10.5 5.5 C12.96875 5.65625 12.96875 5.65625 15 6 C15.33 6.66 15.66 7.32 16 8 C14.24929483 7.88529863 12.49942464 7.75780972 10.75 7.625 C9.77546875 7.55539063 8.8009375 7.48578125 7.796875 7.4140625 C5.06584275 7.00974767 3.28898778 6.52599185 1 5 C0.25 2.375 0.25 2.375 0 0 Z " fill="#6769A5" transform="translate(233,97)"/>
<path d="M0 0 C1.62580966 0.11398665 3.25067157 0.24155659 4.875 0.375 C5.77992188 0.44460937 6.68484375 0.51421875 7.6171875 0.5859375 C10 1 10 1 12 3 C12.125 6.125 12.125 6.125 12 9 C9.64046906 6.64046906 9.50858587 5.22104383 9 2 C6.36 2 3.72 2 1 2 C0.67 1.34 0.34 0.68 0 0 Z " fill="#6768A2" transform="translate(710,251)"/>
<path d="M0 0 C0.33 0 0.66 0 1 0 C1 1.65 1 3.3 1 5 C-4.27913453 7.08386889 -9.39538469 7.57910004 -15 8 C-11.9530371 6.30566082 -9.17178534 5.50532888 -5.75 4.875 C-4.41195312 4.62363281 -4.41195312 4.62363281 -3.046875 4.3671875 C-2.37140625 4.24601563 -1.6959375 4.12484375 -1 4 C-0.67 2.68 -0.34 1.36 0 0 Z " fill="#7070A6" transform="translate(593,245)"/>
<path d="M0 0 C0.99 0 1.98 0 3 0 C3 2 3 2 1.5390625 3.5078125 C0.90742188 4.04148438 0.27578125 4.57515625 -0.375 5.125 C-1.00148437 5.66382813 -1.62796875 6.20265625 -2.2734375 6.7578125 C-4 8 -4 8 -6 8 C-6.33 8.99 -6.66 9.98 -7 11 C-7.33 10.01 -7.66 9.02 -8 8 C-7.236875 7.4225 -6.47375 6.845 -5.6875 6.25 C-2.98734291 4.17663042 -2.98734291 4.17663042 -1.375 1.75 C-0.694375 0.88375 -0.694375 0.88375 0 0 Z " fill="#6A6AAB" transform="translate(132,236)"/>
<path d="M0 0 C0.33 0 0.66 0 1 0 C1 5.61 1 11.22 1 17 C0.01 17 -0.98 17 -2 17 C-1.34 11.39 -0.68 5.78 0 0 Z " fill="#6060B8" transform="translate(175,216)"/>
<path d="M0 0 C0.66 0.33 1.32 0.66 2 1 C1.67 1.61875 1.34 2.2375 1 2.875 C-0.14193235 4.91018344 -0.14193235 4.91018344 0 7 C-4.75 6.25 -4.75 6.25 -7 4 C-1.7265625 0.77734375 -1.7265625 0.77734375 0 0 Z " fill="#6B6CAC" transform="translate(643,97)"/>
<path d="M0 0 C3 1 3 1 4 3 C4.07181821 5.71760108 4.09299506 8.40859388 4.0625 11.125 C4.05798828 11.87910156 4.05347656 12.63320312 4.04882812 13.41015625 C4.03703499 15.27347127 4.01909942 17.13674555 4 19 C3.67 19 3.34 19 3 19 C2.67 14.05 2.34 9.1 2 4 C0.68 3.67 -0.64 3.34 -2 3 C-2 2.34 -2 1.68 -2 1 C-1.34 0.67 -0.68 0.34 0 0 Z " fill="#6867AC" transform="translate(553,92)"/>
<path d="M0 0 C0 0.99 0 1.98 0 3 C-0.33 2.34 -0.66 1.68 -1 1 C-2.32 1.33 -3.64 1.66 -5 2 C-5.66 5.3 -6.32 8.6 -7 12 C-7.33 12 -7.66 12 -8 12 C-8.08131463 10.56344146 -8.13933559 9.1255517 -8.1875 7.6875 C-8.22230469 6.88699219 -8.25710938 6.08648437 -8.29296875 5.26171875 C-8 3 -8 3 -6.65625 1.21875 C-4.39462293 -0.44546615 -2.73668179 -0.22189312 0 0 Z " fill="#6866A3" transform="translate(842,212)"/>
<path d="M0 0 C2.64 0 5.28 0 8 0 C8 0.99 8 1.98 8 3 C7.2575 2.95875 6.515 2.9175 5.75 2.875 C2.91241048 3.00398134 1.41226062 3.57051222 -1 5 C-1.33 4.01 -1.66 3.02 -2 2 C-1.34 2 -0.68 2 0 2 C0 1.34 0 0.68 0 0 Z " fill="#7273BF" transform="translate(36,25)"/>
<path d="M0 0 C0.33 0.66 0.66 1.32 1 2 C0.67 2.66 0.34 3.32 0 4 C-0.66 4 -1.32 4 -2 4 C-2 5.98 -2 7.96 -2 10 C-4.31 9.67 -6.62 9.34 -9 9 C-6 6 -3 3 0 0 Z " fill="#6B6CA8" transform="translate(242,235)"/>
<path d="M0 0 C3 1.125 3 1.125 5 2.125 C5.625 4.6875 5.625 4.6875 6 7.125 C3.0737247 5.81322142 1.24710766 4.37210766 -1 2.125 C-3.09989652 0.94925289 -3.09989652 0.94925289 -5 0.125 C-3 -0.875 -3 -0.875 0 0 Z " fill="#6366B2" transform="translate(665,106.875)"/>
<path d="M0 0 C-3.12988781 2.64836661 -6.0193072 4.0048268 -10 5 C-12.1875 4.546875 -12.1875 4.546875 -14 4 C-12.23494565 3.13395466 -10.46271926 2.28251358 -8.6875 1.4375 C-7.70136719 0.96183594 -6.71523438 0.48617187 -5.69921875 -0.00390625 C-3 -1 -3 -1 0 0 Z " fill="#6A6CA1" transform="translate(783,169)"/>
<path d="M0 0 C0.66 0 1.32 0 2 0 C3.125 5.75 3.125 5.75 2 8 C1.01 8 0.02 8 -1 8 C-1.625 5.125 -1.625 5.125 -2 2 C-1.34 1.34 -0.68 0.68 0 0 Z " fill="#676AAB" transform="translate(34,25)"/>
<path d="M0 0 C0 0.33 0 0.66 0 1 C-1.6396875 1.2165625 -1.6396875 1.2165625 -3.3125 1.4375 C-6.93122987 1.88288104 -6.93122987 1.88288104 -10 3 C-11.39439664 3.06665376 -12.79169875 3.08538199 -14.1875 3.0625 C-16.0746875 3.0315625 -16.0746875 3.0315625 -18 3 C-12.49756101 -0.66829266 -6.39456234 -0.12789125 0 0 Z " fill="#6F6FA6" transform="translate(788,91)"/>
<path d="M0 0 C0.66 0 1.32 0 2 0 C2.45375 0.763125 2.9075 1.52625 3.375 2.3125 C5.00525469 5.00869044 6.39735892 6.29482136 9 8 C8.67 8.99 8.34 9.98 8 11 C6.84501103 9.92643323 5.70132133 8.84070212 4.5625 7.75 C3.92441406 7.14671875 3.28632813 6.5434375 2.62890625 5.921875 C0.91483694 3.89951984 0.40641122 2.58729395 0 0 Z " fill="#6D6FA8" transform="translate(178,247)"/>
<path d="M0 0 C0.66 0.33 1.32 0.66 2 1 C2.73075648 3.3140622 3.40138258 5.64828869 4 8 C5.65 8 7.3 8 9 8 C8.01 8.66 7.02 9.32 6 10 C2.125 8.125 2.125 8.125 1 7 C0.95936168 5.33382885 0.957279 3.66611905 1 2 C0.34 1.67 -0.32 1.34 -1 1 C-0.67 0.67 -0.34 0.34 0 0 Z " fill="#6669A1" transform="translate(409,106)"/>
<path d="M0 0 C0.33 0.66 0.66 1.32 1 2 C1.66 2 2.32 2 3 2 C2.34 3.32 1.68 4.64 1 6 C0.34 6 -0.32 6 -1 6 C-1 5.34 -1 4.68 -1 4 C-1.66 4 -2.32 4 -3 4 C-3 3.01 -3 2.02 -3 1 C-2.01 0.67 -1.02 0.34 0 0 Z " fill="#6062BE" transform="translate(299,251)"/>
<path d="M0 0 C0.598125 0.763125 1.19625 1.52625 1.8125 2.3125 C3.46959332 4.3483575 5.10297674 6.1978279 7 8 C4.69 7.67 2.38 7.34 0 7 C0 4.69 0 2.38 0 0 Z " fill="#6B6DA4" transform="translate(748,238)"/>
<path d="M0 0 C0.33 0.66 0.66 1.32 1 2 C-1.23407889 5.35111834 -2.26215824 6.81553956 -6.25 7.8125 C-7.61125 7.9053125 -7.61125 7.9053125 -9 8 C-7.88625 7.13375 -7.88625 7.13375 -6.75 6.25 C-4.33912357 4.27746474 -2.15957299 2.23955718 0 0 Z " fill="#696DA0" transform="translate(549,94)"/>
<path d="M0 0 C0.66 0 1.32 0 2 0 C1.979375 0.763125 1.95875 1.52625 1.9375 2.3125 C1.87057159 5.10185786 1.87057159 5.10185786 3 8 C1.68 7.34 0.36 6.68 -1 6 C-0.67 4.02 -0.34 2.04 0 0 Z " fill="#6A6B9D" transform="translate(294,253)"/>
<path d="M0 0 C1.77155654 0.11429397 3.54226229 0.24183037 5.3125 0.375 C6.79169922 0.47941406 6.79169922 0.47941406 8.30078125 0.5859375 C11 1 11 1 14 3 C10.45332822 4.25127906 8.27746562 3.72285053 4.75 2.5625 C3.85796875 2.27503906 2.9659375 1.98757812 2.046875 1.69140625 C1.37140625 1.46324219 0.6959375 1.23507813 0 1 C0 0.67 0 0.34 0 0 Z " fill="#6A6CA2" transform="translate(500,250)"/>
<path d="M0 0 C2.31 0.33 4.62 0.66 7 1 C5.68 2.32 4.36 3.64 3 5 C2.01 4.34 1.02 3.68 0 3 C0 2.01 0 1.02 0 0 Z " fill="#686BAF" transform="translate(339,249)"/>
<path d="M0 0 C0.33 0 0.66 0 1 0 C1.08096803 1.45742463 1.13917774 2.91612807 1.1875 4.375 C1.22230469 5.18710938 1.25710938 5.99921875 1.29296875 6.8359375 C1.19628906 7.55007812 1.09960938 8.26421875 1 9 C0.01 9.66 -0.98 10.32 -2 11 C-2.66 10.34 -3.32 9.68 -4 9 C-3.34 9 -2.68 9 -2 9 C-1.34 6.03 -0.68 3.06 0 0 Z " fill="#6C6CA2" transform="translate(470,240)"/>
<path d="M0 0 C2.64 0 5.28 0 8 0 C7.67 0.99 7.34 1.98 7 3 C5.35 3.33 3.7 3.66 2 4 C1.34 2.68 0.68 1.36 0 0 Z " fill="#6367B7" transform="translate(175,243)"/>
<path d="M0 0 C0.8125 1.6875 0.8125 1.6875 1 4 C-1.4375 6.75 -1.4375 6.75 -4 9 C-4 5.00095031 -2.27413033 3.19799578 0 0 Z " fill="#6D6CA5" transform="translate(733,119)"/>
<path d="M0 0 C-2.31 1.32 -4.62 2.64 -7 4 C-7.33 3.01 -7.66 2.02 -8 1 C-4.93251126 -0.86240388 -3.40254489 -1.2151946 0 0 Z " fill="#6F71A7" transform="translate(831,259)"/>
<path d="M0 0 C0.99 0.66 1.98 1.32 3 2 C1.02 2.99 -0.96 3.98 -3 5 C-3.66 4.34 -4.32 3.68 -5 3 C-3.35 2.01 -1.7 1.02 0 0 Z " fill="#5C5BBC" transform="translate(773,181)"/>
<path d="M0 0 C0.99 0.33 1.98 0.66 3 1 C3 1.66 3 2.32 3 3 C3.99 3 4.98 3 6 3 C5.67 4.65 5.34 6.3 5 8 C4.34 8 3.68 8 3 8 C2.01 5.36 1.02 2.72 0 0 Z " fill="#6868AF" transform="translate(465,114)"/>
<path d="M0 0 C0.33 0.66 0.66 1.32 1 2 C-0.375 4 -0.375 4 -2 6 C-2.66 6 -3.32 6 -4 6 C-4.33 6.99 -4.66 7.98 -5 9 C-5.33 8.01 -5.66 7.02 -6 6 C-4.02 4.02 -2.04 2.04 0 0 Z " fill="#6A6DA2" transform="translate(742,109)"/>
<path d="M0 0 C6.875 3.75 6.875 3.75 8 6 C6.02 6.33 4.04 6.66 2 7 C2 5.68 2 4.36 2 3 C1.34 2.67 0.68 2.34 0 2 C0 1.34 0 0.68 0 0 Z " fill="#6E6EA9" transform="translate(800,94)"/>
<path d="M0 0 C-0.66 2.31 -1.32 4.62 -2 7 C-2.33 6.34 -2.66 5.68 -3 5 C-3.66 5 -4.32 5 -5 5 C-5 4.01 -5 3.02 -5 2 C-2 0 -2 0 0 0 Z " fill="#6D6EA8" transform="translate(563,49)"/>
<path d="M0 0 C0 0.66 0 1.32 0 2 C-2.64 2.66 -5.28 3.32 -8 4 C-8 3.34 -8 2.68 -8 2 C-4.91190305 0.23537317 -3.76687864 0 0 0 Z " fill="#6263AE" transform="translate(642,258)"/>
<path d="M0 0 C0.33 0 0.66 0 1 0 C1 2.97 1 5.94 1 9 C-0.98 9.99 -0.98 9.99 -3 11 C-2.690625 10.29875 -2.38125 9.5975 -2.0625 8.875 C-0.96697322 5.91063343 -0.43577008 3.12301892 0 0 Z " fill="#6D6EA2" transform="translate(312,239)"/>
<path d="M0 0 C0 3 0 3 -1.5 4.6875 C-1.995 5.120625 -2.49 5.55375 -3 6 C-4.32 5.34 -5.64 4.68 -7 4 C-4.69 2.68 -2.38 1.36 0 0 Z " fill="#6E6CA8" transform="translate(767,174)"/>
<path d="M0 0 C0.66 0.33 1.32 0.66 2 1 C2 1.99 2 2.98 2 4 C2.66 4.66 3.32 5.32 4 6 C2.35 5.67 0.7 5.34 -1 5 C-1 1 -1 1 0 0 Z " fill="#6669BF" transform="translate(747,136)"/>
<path d="M0 0 C1.52519276 0.08937803 3.04681929 0.24537146 4.5625 0.4375 C5.80193359 0.59025391 5.80193359 0.59025391 7.06640625 0.74609375 C7.70449219 0.82988281 8.34257812 0.91367188 9 1 C9 1.33 9 1.66 9 2 C5.37 2.33 1.74 2.66 -2 3 C-1 1 -1 1 0 0 Z " fill="#6665A4" transform="translate(444,106)"/>
<path d="M0 0 C1.9375 0.75 1.9375 0.75 4 2 C4.8125 4 4.8125 4 5 6 C4.67 6.66 4.34 7.32 4 8 C1.44971017 6.72485508 1.06918289 5.59658703 0 3 C0 2.01 0 1.02 0 0 Z " fill="#6164AA" transform="translate(272,93)"/>
<path d="M0 0 C4.8333472 -0.08333357 9.23692563 0.04738513 14 1 C11.56661348 2.53508028 10.32875493 3.03088304 7.421875 2.7578125 C6.09929688 2.44457031 6.09929688 2.44457031 4.75 2.125 C3.85796875 1.92132813 2.9659375 1.71765625 2.046875 1.5078125 C1.37140625 1.34023437 0.6959375 1.17265625 0 1 C0 0.67 0 0.34 0 0 Z " fill="#7170A6" transform="translate(662,91)"/>
<path d="M0 0 C5.875 3.75 5.875 3.75 7 6 C4.0625 5.25 4.0625 5.25 1 4 C0.125 1.875 0.125 1.875 0 0 Z " fill="#6C71A6" transform="translate(188,256)"/>
<path d="M0 0 C0.99 0.33 1.98 0.66 3 1 C3 1.66 3 2.32 3 3 C3.99 3.66 4.98 4.32 6 5 C4.02 5.33 2.04 5.66 0 6 C0 4.02 0 2.04 0 0 Z " fill="#6064B5" transform="translate(353,256)"/>
<path d="M0 0 C0.66 0.33 1.32 0.66 2 1 C1.75 3.375 1.75 3.375 1 6 C-1.0625 7.3125 -1.0625 7.3125 -3 8 C-1.125 2.25 -1.125 2.25 0 0 Z " fill="#6467A7" transform="translate(728,207)"/>
<path d="M0 0 C0.99 0.33 1.98 0.66 3 1 C2.67 2.98 2.34 4.96 2 7 C1.01 6.67 0.02 6.34 -1 6 C-0.67 4.02 -0.34 2.04 0 0 Z " fill="#696BAB" transform="translate(337,132)"/>
<path d="M0 0 C1.36125 0.37125 1.36125 0.37125 2.75 0.75 C-0.51545761 2.63391785 -3.53111761 3.24287967 -7.25 3.75 C-4.05 -0.31153846 -4.05 -0.31153846 0 0 Z " fill="#6969A1" transform="translate(365.25,107.25)"/>
</svg>
