<?xml version="1.0" encoding="UTF-8"?>
<svg xmlns="http://www.w3.org/2000/svg" xmlns:xlink="http://www.w3.org/1999/xlink" width="32px" height="32px" viewBox="0 0 32 32" version="1.1">
<g id="surface1">
<path style=" stroke:none;fill-rule:nonzero;fill:rgb(3.921569%,3.921569%,3.921569%);fill-opacity:1;" d="M 0 0 C 10.558594 0 21.121094 0 32 0 C 32 10.558594 32 21.121094 32 32 C 21.441406 32 10.878906 32 0 32 C 0 21.441406 0 10.878906 0 0 Z M 0 0 "/>
<path style=" stroke:none;fill-rule:nonzero;fill:rgb(100%,99.215686%,99.215686%);fill-opacity:1;" d="M 0 0 C 10.558594 0 21.121094 0 32 0 C 32 10.558594 32 21.121094 32 32 C 21.441406 32 10.878906 32 0 32 C 0 21.441406 0 10.878906 0 0 Z M 4 4 C 4 11.921875 4 19.839844 4 28 C 11.921875 28 19.839844 28 28 28 C 28 20.078125 28 12.160156 28 4 C 20.078125 4 12.160156 4 4 4 Z M 4 4 "/>
<path style=" stroke:none;fill-rule:nonzero;fill:rgb(1.176471%,1.176471%,1.176471%);fill-opacity:1;" d="M 4 4 C 7.960938 4 11.921875 4 16 4 C 16 5.320312 16 6.640625 16 8 C 14.019531 8 12.039062 8 10 8 C 10 13.28125 10 18.558594 10 24 C 13.960938 24 17.921875 24 22 24 C 22 22.019531 22 20.039062 22 18 C 23.320312 18.660156 24.640625 19.320312 26 20 C 26 22.640625 26 25.28125 26 28 C 18.738281 28 11.480469 28 4 28 C 4 20.078125 4 12.160156 4 4 Z M 4 4 "/>
<path style=" stroke:none;fill-rule:nonzero;fill:rgb(100%,99.607843%,99.607843%);fill-opacity:1;" d="M 10 8 C 11.320312 8 12.640625 8 14 8 C 14 11.960938 14 15.921875 14 20 C 16.640625 20 19.28125 20 22 20 C 22 21.320312 22 22.640625 22 24 C 18.039062 24 14.078125 24 10 24 C 10 18.71875 10 13.441406 10 8 Z M 10 8 "/>
</g>
</svg>
